<svg xmlns="http://www.w3.org/2000/svg" xmlns:xlink="http://www.w3.org/1999/xlink" viewBox="0 0 141.8 229.35"><defs><style>.cls-1,.cls-5,.cls-8{fill:none;}.cls-2{isolation:isolate;}.cls-3{opacity:0.15;mix-blend-mode:darken;}.cls-4{clip-path:url(#clip-path);}.cls-5{stroke:#333132;stroke-width:0.53px;}.cls-5,.cls-8{stroke-miterlimit:10;}.cls-6{fill:#8c9091;}.cls-7{clip-path:url(#clip-path-2);}.cls-8{stroke:#414042;stroke-width:0.63px;}</style><clipPath id="clip-path"><rect class="cls-1" x="168.13" y="-0.22" width="141.8" height="229.35"/></clipPath><clipPath id="clip-path-2"><rect class="cls-1" x="0.03" y="-0.01" width="141.8" height="229.35"/></clipPath></defs><title>Artboard 7</title><g class="cls-2"><g id="Layer_1" data-name="Layer 1"><g class="cls-3"><g class="cls-4"><polygon class="cls-5" points="147.49 117.12 59.88 -16.66 147.49 -150.45 289.26 -99.35 289.26 66.02 147.49 117.12"/></g></g><rect class="cls-6" width="141.8" height="229.35" transform="translate(141.8 229.35) rotate(-180)"/><g class="cls-3"><g class="cls-7"><polygon class="cls-8" points="67.26 46.09 -127.82 166.69 141.83 166.69 67.26 46.09"/><polygon class="cls-8" points="67.26 287.3 -127.82 166.69 141.83 166.69 67.26 287.3"/><polygon class="cls-8" points="67.26 46.09 141.83 166.69 141.83 -0.01 67.26 46.09"/><polygon class="cls-8" points="216.39 46.09 141.83 166.69 141.83 -0.01 216.39 46.09"/><polygon class="cls-8" points="67.29 46.07 141.83 -0.01 38.8 -0.01 67.29 46.07"/><polygon class="cls-8" points="67.29 -46.09 141.83 -0.01 38.8 -0.01 67.29 -46.09"/><polygon class="cls-8" points="67.26 46.09 38.86 0.14 38.86 63.64 67.26 46.09"/><polygon class="cls-8" points="10.46 46.09 38.86 0.14 38.86 63.64 10.46 46.09"/><polygon class="cls-8" points="67.26 46.09 38.86 63.65 78.12 63.65 67.26 46.09"/><polygon class="cls-8" points="67.26 81.21 38.86 63.65 78.12 63.65 67.26 81.21"/><polygon class="cls-8" points="67.26 46.09 78.16 63.72 78.16 39.35 67.26 46.09"/><polygon class="cls-8" points="89.06 46.09 78.16 63.72 78.16 39.35 89.06 46.09"/><polygon class="cls-8" points="67.27 46.09 78.16 39.35 63.1 39.35 67.27 46.09"/><polygon class="cls-8" points="67.27 32.62 78.16 39.35 63.1 39.35 67.27 32.62"/></g></g></g></g></svg>