<svg width="145.8" height="233.35" data-name="Layer 1" version="1.1" viewBox="0 0 145.8 233.35001" xmlns="http://www.w3.org/2000/svg">
<defs>
<style>.cls-1,.cls-4{fill:none;}.cls-2{fill:#414042;}.cls-3{clip-path:url(#clip-path);}.cls-4{stroke:#333132;stroke-miterlimit:10;stroke-width:0.5px;}</style>
<clipPath id="clip-path">
<rect class="cls-1" x="-3.33" y=".31" width="141.8" height="229.35" style="fill:none"/>
</clipPath>
</defs>
<title>Artboard 3</title>
<rect class="cls-2" transform="scale(-1)" x="-143.79" y="-231.35" width="141.8" height="229.35" style="fill:none"/>
<g class="cls-3" transform="translate(5.33 1.69)" clip-path="url(#clip-path)">
<polygon class="cls-4" points="62.55 141.48 211 141.48 256.87 282.66 136.78 369.91 16.68 282.66" style="fill:none;stroke-miterlimit:10;stroke-width:.5px;stroke:#333132"/>
<polygon class="cls-4" points="63.17 141.48 -28.57 141.48 -56.92 54.23 17.3 0.31 91.52 54.23" style="fill:none;stroke-miterlimit:10;stroke-width:.5px;stroke:#333132"/>
<polygon class="cls-4" points="109.04 0.31 165.74 0.31 183.26 54.23 137.39 87.56 91.52 54.23" style="fill:none;stroke-miterlimit:10;stroke-width:.5px;stroke:#333132"/>
<polygon class="cls-4" points="154.91 141.48 119.87 141.48 109.04 108.16 137.39 87.56 165.74 108.16" style="fill:none;stroke-miterlimit:10;stroke-width:.5px;stroke:#333132"/>
<polygon class="cls-4" points="80.69 87.56 102.35 87.56 109.04 108.16 91.52 120.89 74 108.16" style="fill:none;stroke-miterlimit:10;stroke-width:.5px;stroke:#333132"/>
<polygon class="cls-4" points="115.73 87.56 102.35 87.56 98.21 74.83 109.04 66.96 119.87 74.83" style="fill:none;stroke-miterlimit:10;stroke-width:.5px;stroke:#333132"/>
<polygon class="cls-4" points="115.73 87.56 124.01 87.56 126.56 95.43 119.87 100.29 113.18 95.43" style="fill:none;stroke-miterlimit:10;stroke-width:.5px;stroke:#333132"/>
</g>
</svg>
