<svg id="Layer_1" data-name="Layer 1" xmlns="http://www.w3.org/2000/svg" viewBox="0 0 833.96 841.89"><defs><style>.cls-1{fill:none;stroke:#333132;stroke-miterlimit:10;stroke-width:0.5px;}</style></defs><title>square</title><polygon class="cls-1" points="527.32 836.3 6.6 535.66 307.24 14.94 567.6 165.26 827.96 315.58 527.32 836.3"/><polygon class="cls-1" points="338.68 511.98 152.87 190.15 474.69 4.34 567.6 165.26 660.5 326.17 338.68 511.98"/><polygon class="cls-1" points="337.26 277.59 337.26 47.92 566.93 47.92 566.93 162.76 566.93 277.59 337.26 277.59"/><polygon class="cls-1" points="407.84 155.67 479.42 31.7 603.38 103.27 567.6 165.26 531.81 227.24 407.84 155.67"/><polygon class="cls-1" points="485.75 111.22 561.72 67.35 605.58 143.33 567.6 165.26 529.61 187.19 485.75 111.22"/><polygon class="cls-1" points="540.49 111.04 594.71 111.04 594.71 165.26 567.6 165.26 540.49 165.26 540.49 111.04"/><polygon class="cls-1" points="569.84 127.86 598.86 144.62 582.11 173.63 567.6 165.26 553.09 156.88 569.84 127.86"/></svg>
