<svg version="1.1" viewBox="0 0 141.8 229.35" xmlns="http://www.w3.org/2000/svg">
<defs>
<style>.cls-1,.cls-11,.cls-6,.cls-7,.cls-9{fill:none;}.cls-2{isolation:isolate;}.cls-3{fill:#8c9091;}.cls-4{opacity:0.15;mix-blend-mode:darken;}.cls-5{clip-path:url(#clip-path);}.cls-6,.cls-9{stroke:#333132;}.cls-11,.cls-6,.cls-7,.cls-9{stroke-miterlimit:10;}.cls-6{stroke-width:0.53px;}.cls-7{stroke:#231f20;}.cls-7,.cls-9{stroke-width:0.5px;}.cls-8{clip-path:url(#clip-path-2);}.cls-10{clip-path:url(#clip-path-3);}.cls-11{stroke:#414042;stroke-width:0.63px;}</style>
<clipPath id="clip-path">
<rect class="cls-1" y="-.04" width="141.8" height="229.35"/>
</clipPath>
<clipPath id="clip-path-2">
<rect class="cls-1" x="170.47" y=".17" width="141.8" height="229.35"/>
</clipPath>
<clipPath id="clip-path-3">
<rect class="cls-1" x="-168.1" y=".17" width="141.8" height="229.35"/>
</clipPath>
</defs>
<title>Artboard 6</title>
<g class="cls-2">
<g data-name="Layer 1">
<rect class="cls-3" transform="translate(141.8 229.35) rotate(180)" width="141.8" height="229.35" style="fill:none"/>
<g class="cls-4">
<g class="cls-5" clip-path="url(#clip-path)">
<polygon class="cls-6" points="-20.64 117.3 -108.26 -16.48 -20.64 -150.27 121.13 -99.17 121.13 66.2"/>
<polygon class="cls-6" points="121.13 66.2 175.28 148.89 121.13 231.57 33.51 199.99 33.51 97.78"/>
<polygon class="cls-6" points="33.51 97.78 0.04 46.68 33.51 -4.42 87.66 15.1 87.66 78.27"/>
<polygon class="cls-6" points="87.66 78.27 108.34 109.85 87.66 141.43 54.19 129.37 54.19 90.33"/>
<polygon class="cls-6" points="54.19 90.33 41.41 70.81 54.19 51.29 74.88 58.75 74.88 82.87"/>
<polygon class="cls-6" points="74.88 82.87 82.78 94.94 74.88 107 62.09 102.39 62.09 87.48"/>
<polygon class="cls-6" points="62.09 87.48 57.21 80.03 62.09 72.57 69.99 75.42 69.99 84.63"/>
</g>
</g>
<line class="cls-7" x2="141.8" y1="229.35" y2="229.35"/>
</g>
</g>
</svg>
