<svg viewBox="0 0 83.25 44.48" xmlns="http://www.w3.org/2000/svg"><g fill="#fff"><path d="m55.35 22.47a43.7 43.7 0 0 1 5.85 5.22 19.7 19.7 0 0 1 -4.05 4.79c-1.9-1.81-3.81-3.37-5.76-5 1.32-1.76 2.64-3.47 4-5"/><path d="m70.57 17.06a1.35 1.35 0 0 0 -.42-.19 8.32 8.32 0 0 1 -3.64 2.26c-.28 0-1.6-.1-1.73-.31v-.09a20.75 20.75 0 0 0 4.35-2.07c-1.39-.24-2.1-.77-2.1-1.78a2.5 2.5 0 0 1 2.37-2.38c.66 0 1.49.62 1.49 2.47a2.48 2.48 0 0 1 -.1.73 1.58 1.58 0 0 1 .63.23zm-.57-1.46a.91.91 0 0 0 .06-.32c0-.78-.56-1.7-1.22-1.7s-1 .38-1 .71c0 .59.87 1.05 2.17 1.31"/><path d="m61.4 43.75-6.23-6.24h-8.82v-8a7.27 7.27 0 0 1 0-14.1v-8h8.82l6.23-6.21 6.23 6.23h8.81v8a7.27 7.27 0 0 1 0 14.1v8h-8.81zm-11.52-9.75h6.74l4.78 4.77 4.77-4.77h6.75v-7.79h1.76a3.74 3.74 0 0 0 0-7.48h-1.76v-7.73h-6.75l-4.77-4.82-4.78 4.82h-6.74v7.78h-1.77a3.74 3.74 0 0 0 0 7.48h1.77z"/><path d="m3.54 30.29v3h-1.67v-7.9h2.13a3.55 3.55 0 0 1 2.27.61 2.15 2.15 0 0 1 .73 1.79 2.38 2.38 0 0 1 -.11.73 2.16 2.16 0 0 1 -.29.59 2.52 2.52 0 0 1 -.41.45 3.27 3.27 0 0 1 -.5.32l1.08 1.71c.13.22.27.43.39.64s.25.38.35.55.18.29.25.38l.09.16h-1.85l-1.71-3zm0-1.36h.46a1.47 1.47 0 0 0 1-.28 1.08 1.08 0 0 0 .31-.82.93.93 0 0 0 -.31-.83 1.67 1.67 0 0 0 -1-.24h-.46z"/><path d="m13.9 30.29a4.25 4.25 0 0 1 -.19 1.34 2.75 2.75 0 0 1 -.55 1 2.33 2.33 0 0 1 -.87.61 3.28 3.28 0 0 1 -1.16.2 3 3 0 0 1 -1.1-.2 2.33 2.33 0 0 1 -.87-.61 2.94 2.94 0 0 1 -.57-1 4.7 4.7 0 0 1 0-2.68 2.84 2.84 0 0 1 .55-1 2.42 2.42 0 0 1 .87-.6 3.24 3.24 0 0 1 1.16-.2 3 3 0 0 1 1.1.2 2.42 2.42 0 0 1 .87.6 3 3 0 0 1 .57 1 4 4 0 0 1 .2 1.34m-3.83 0a2.8 2.8 0 0 0 .26 1.35.85.85 0 0 0 .82.46.86.86 0 0 0 .82-.46 2.82 2.82 0 0 0 .25-1.35 2.82 2.82 0 0 0 -.23-1.35.88.88 0 0 0 -.83-.44.86.86 0 0 0 -.82.44 2.94 2.94 0 0 0 -.25 1.35"/><path d="m20.56 33.32h-1.65v-3.53a2 2 0 0 0 -.19-1 .69.69 0 0 0 -.63-.32 1.08 1.08 0 0 0 -.54.12 1 1 0 0 0 -.35.39 2.4 2.4 0 0 0 -.18.62 7.25 7.25 0 0 0 -.05.86v2.84h-1.65v-6h1.26l.22.77h.09a1.57 1.57 0 0 1 .32-.4 1.62 1.62 0 0 1 .41-.27 1.74 1.74 0 0 1 .47-.16 2.07 2.07 0 0 1 .5 0 2.55 2.55 0 0 1 .81.12 1.62 1.62 0 0 1 .62.4 1.8 1.8 0 0 1 .4.69 3.26 3.26 0 0 1 .14 1z"/><path d="m24 33.42a1.75 1.75 0 0 1 -.85-.2 1.93 1.93 0 0 1 -.66-.59 3.23 3.23 0 0 1 -.43-1 6.2 6.2 0 0 1 0-2.71 3.22 3.22 0 0 1 .44-1 1.9 1.9 0 0 1 .68-.59 2 2 0 0 1 1.4-.13 1.57 1.57 0 0 1 .44.18 2.45 2.45 0 0 1 .35.29 2.24 2.24 0 0 1 .27.34l-.06-.42c0-.13 0-.26 0-.39s0-.27 0-.39v-1.89h1.65v8.4h-1.23l-.32-.79h-.08a2.27 2.27 0 0 1 -.26.35 1.3 1.3 0 0 1 -.34.28 1.4 1.4 0 0 1 -.43.19 1.81 1.81 0 0 1 -.54.07m.6-1.31a1 1 0 0 0 .49-.1.82.82 0 0 0 .34-.3 1.8 1.8 0 0 0 .19-.5 3.76 3.76 0 0 0 .06-.71v-.18a6 6 0 0 0 -.05-.78 2.12 2.12 0 0 0 -.18-.57.78.78 0 0 0 -.33-.34 1.07 1.07 0 0 0 -.53-.12.79.79 0 0 0 -.76.46 2.92 2.92 0 0 0 -.25 1.36 2.8 2.8 0 0 0 .25 1.34.82.82 0 0 0 .77.44"/><path d="m32.48 33.32-.32-.82a3 3 0 0 1 -.36.41 1.24 1.24 0 0 1 -.39.29 1.63 1.63 0 0 1 -.47.17 2.69 2.69 0 0 1 -.6.05 2.17 2.17 0 0 1 -.69-.11 1.73 1.73 0 0 1 -.54-.35 1.78 1.78 0 0 1 -.36-.6 2.66 2.66 0 0 1 -.13-.85 1.63 1.63 0 0 1 .62-1.41 3.23 3.23 0 0 1 1.76-.51h1v-.45a.68.68 0 0 0 -.22-.56 1 1 0 0 0 -.6-.17 2.79 2.79 0 0 0 -.76.11 6.38 6.38 0 0 0 -.74.3l-.53-1.09a4.26 4.26 0 0 1 1-.4 4.83 4.83 0 0 1 1.15-.14 2.49 2.49 0 0 1 1.73.53 2 2 0 0 1 .61 1.6v4zm-.48-2.8h-.54a2.11 2.11 0 0 0 -.56.09 1 1 0 0 0 -.36.2.66.66 0 0 0 -.2.3 1 1 0 0 0 -.07.39.66.66 0 0 0 .19.54.68.68 0 0 0 .48.16 1.16 1.16 0 0 0 .42-.08 1 1 0 0 0 .34-.23 1.09 1.09 0 0 0 .22-.38 1.6 1.6 0 0 0 .08-.51z"/><path d="m4.08 20.08a2.92 2.92 0 0 1 -2-.63 2.44 2.44 0 0 1 -.69-1.88 3.44 3.44 0 0 1 .32-1.57 2.68 2.68 0 0 1 1-1.13 2.55 2.55 0 0 1 1.43-.41 2.4 2.4 0 0 1 1.35.4 2.87 2.87 0 0 1 1 1.13 3.33 3.33 0 0 1 .39 1.58 2.4 2.4 0 0 1 -.7 1.9 3 3 0 0 1 -2 .61m0-1.33a1.12 1.12 0 0 0 .86-.3 1.39 1.39 0 0 0 .27-.93 2.26 2.26 0 0 0 -.33-1.23 1 1 0 0 0 -.81-.52.93.93 0 0 0 -.79.51 2.23 2.23 0 0 0 -.33 1.24 1.31 1.31 0 0 0 .28.93 1.11 1.11 0 0 0 .85.3"/><path d="m8 18.66h3.64a7.21 7.21 0 0 0 -.51-1.66 3.8 3.8 0 0 0 -.83-1 4.14 4.14 0 0 0 -1.21-.75l.61-1.53a5.28 5.28 0 0 1 2.3 1.74 8.12 8.12 0 0 1 1.29 3.2h1.43s.06 0 .06.05v1.21s0 0-.06 0h-6.72z"/><path d="m16.6 18.66s.06 0 .06.05v1.21s0 0-.06 0h-2s-.05 0-.05 0v-1.21a0 0 0 0 1 .05-.05z"/><path d="m16.72 18.66s.06 0 .06.05v1.21s0 0-.06 0h-2s-.05 0-.05 0v-1.21s0-.05.05-.05z"/><path d="m18.59 18.66s.06 0 .06.05v1.21s0 0-.06 0h-2s-.05 0-.05 0v-1.21a0 0 0 0 1 .05-.05z"/><path d="m20.45 18.66s.06 0 .06.05v1.21s0 0-.06 0h-2s-.05 0-.05 0v-1.21s0-.05.05-.05z"/><path d="m22.32 18.66s.06 0 .06.05v1.21s0 0-.06 0h-2s-.06 0-.06 0v-1.21s0-.05.06-.05z"/><path d="m24.4 18.66s.06 0 .06.05v1.21s0 0-.06 0h-2s-.05 0-.05 0v-1.21a0 0 0 0 1 .05-.05z"/><path d="m26.27 18.66s.06 0 .06.05v1.21s0 0-.06 0h-2s-.06 0-.06 0v-1.21s0-.05.06-.05z"/><path d="m26.16 20s-.05 0-.05 0v-1.3a0 0 0 0 1 .05 0h1.37v-4.13h1.62v5.43z"/><path d="m31.65 22.6a3.64 3.64 0 0 1 -1-.14 3.72 3.72 0 0 1 -1-.48l.66-1.06a2 2 0 0 0 .51.25 1.66 1.66 0 0 0 .53.07.84.84 0 0 0 .7-.33 1.28 1.28 0 0 0 .27-.84v-5.5h1.63v5.58a2.55 2.55 0 0 1 -.62 1.79 2.19 2.19 0 0 1 -1.67.66"/><path d="m3 12.05c-.42-.4-.79-.73-1.21-1.07a9.62 9.62 0 0 1 .82-1 9.94 9.94 0 0 1 1.17 1.1 5.66 5.66 0 0 1 -.78 1m2-.14c-.42-.4-.79-.73-1.2-1.06a8.45 8.45 0 0 1 .81-1 9.94 9.94 0 0 1 1.1 1.12 5.18 5.18 0 0 1 -.78.94"/><path d="m19.84 11.17a9.6 9.6 0 0 1 1.24 1.1 4.31 4.31 0 0 1 -.86 1c-.4-.38-.8-.71-1.21-1.06.28-.37.56-.73.83-1.05"/><path d="m33.65 12.71a.88.88 0 0 0 -.24-.11 5.09 5.09 0 0 1 -2.15 1.34 2.73 2.73 0 0 1 -1-.19v-.05a12.32 12.32 0 0 0 2.57-1.22c-.82-.15-1.24-.46-1.24-1.05a1.48 1.48 0 0 1 1.41-1.43c.39 0 .88.37.88 1.46a1.49 1.49 0 0 1 -.06.43.91.91 0 0 1 .37.13zm-.33-.86a.58.58 0 0 0 0-.19c0-.46-.33-1-.72-1s-.6.22-.6.42c0 .35.51.62 1.29.77"/></g></svg>