<svg width="320" height="320" data-name="Layer 1" version="1.1" viewBox="0 0 320.00049 320.00174" xmlns="http://www.w3.org/2000/svg">
<defs>
<style>.cls-1{fill:#1d1d1b;}</style>
</defs>
<title>UP logo</title>
<path d="m272.92 148.8a73.354 73.354 0 0 0 22.679 -22.462 54.256 54.256 0 0 0 7.9213 -33.857 51.652 51.652 0 0 0 -9.2236 -25.065 87.786 87.786 0 0 0 -24.308 -23.439 124.14 124.14 0 0 0 -32.555 -14.975 116.32 116.32 0 0 0 -33.748 -5.317 63.696 63.696 0 0 0 -52.954 24.308 105.04 105.04 0 0 0 -19.207 66.845v12.045a75.958 75.958 0 0 1 -43.405 -28.647 140.2 140.2 0 0 1 -24.959 -70.315 32.555 32.555 0 0 0 -2.8213 -11.611 5.9682 5.9682 0 0 0 -5.5341 -3.2555 13.998 13.998 0 0 0 -5.317 1.6277 49.915 49.915 0 0 0 -7.1619 4.1235q-3.6894 2.4959-6.9448 5.1002a56.536 56.536 0 0 0 -4.666 3.9064 68.255 68.255 0 0 0 -12.045 16.819 45.032 45.032 0 0 0 -4.8831 21.702 88.329 88.329 0 0 0 7.3787 34.941 99.615 99.615 0 0 0 21.702 31.902 128.37 128.37 0 0 0 37.003 24.741 167.11 167.11 0 0 0 51.326 13.456v128.04a6.7278 6.7278 0 0 0 6.7278 6.7278h48.396a6.7278 6.7278 0 0 0 6.7278 -6.7278v-127.28a211.93 211.93 0 0 0 45.141 -8.1383 133.47 133.47 0 0 0 34.723 -15.192zm-44.381-32.555a68.362 68.362 0 0 1 -34.941 10.851v-25.283a81.928 81.928 0 0 1 3.4723 -29.407 12.696 12.696 0 0 1 12.696 -7.5958 29.189 29.189 0 0 1 9.4405 1.8447 40.149 40.149 0 0 1 10.2 5.317 32.555 32.555 0 0 1 8.3554 8.7895 21.702 21.702 0 0 1 3.4725 11.828 28.431 28.431 0 0 1 -12.696 23.981z" style="fill:#fff;stroke-width:10.851"/>
</svg>
