<svg width="564.78" height="271.58" data-name="Layer 1" version="1.1" viewBox="0 0 564.78089 271.58146" xmlns="http://www.w3.org/2000/svg">
<defs>
<style>.cls-1{fill:#1d1d1b;}</style>
</defs>
<title>UP logo</title>
<path d="m139.35 102.83a3.2142 3.2142 0 0 0 -3.6289 0.72579 3.5252 3.5252 0 0 0 -0.67395 1.0368 3.266 3.266 0 0 0 4.3029 4.3029 3.5771 3.5771 0 0 0 1.0368 -0.67394 3.1624 3.1624 0 0 0 0.72579 -1.0368 3.2142 3.2142 0 0 0 0 -2.5402 3.3697 3.3697 0 0 0 -0.72579 -1.0368 3.4216 3.4216 0 0 0 -1.0368 -0.77763z" style="fill:#fff;stroke-width:5.1842"/>
<path d="m130.53 102.83a3.266 3.266 0 0 0 -3.6289 0.72579 3.6289 3.6289 0 0 0 -0.67394 1.0368 3.3179 3.3179 0 0 0 0.67394 3.6289 3.3179 3.3179 0 0 0 3.6289 0.67394 3.5252 3.5252 0 0 0 1.0368 -0.67394 3.266 3.266 0 0 0 0.72578 -1.0368 3.266 3.266 0 0 0 0 -2.5402 3.4734 3.4734 0 0 0 -0.72578 -1.0368 3.4216 3.4216 0 0 0 -1.0368 -0.77763z" style="fill:#fff;stroke-width:5.1842"/>
<path d="m164.23 154.73a3.5252 3.5252 0 0 0 1.0368 -0.67394 3.3179 3.3179 0 0 0 0.72578 -1.0368 3.266 3.266 0 0 0 0 -2.5402 3.4734 3.4734 0 0 0 -0.72578 -1.0368 3.3697 3.3697 0 0 0 -1.0368 -0.72578 3.1624 3.1624 0 0 0 -1.296 -0.25921 3.1105 3.1105 0 0 0 -1.296 0.25921 3.1624 3.1624 0 0 0 -1.0368 0.72578 3.5771 3.5771 0 0 0 -0.67394 1.0368 3.266 3.266 0 0 0 4.3029 4.3029z" style="fill:#fff;stroke-width:5.1842"/>
<path d="m155.42 154.73a3.5252 3.5252 0 0 0 1.0368 -0.67394 3.266 3.266 0 0 0 0.72579 -3.5771 3.3697 3.3697 0 0 0 -1.7626 -1.7626 3.266 3.266 0 0 0 -3.5771 0.72578 3.4734 3.4734 0 0 0 -0.67395 1.0368 3.1105 3.1105 0 0 0 -0.25921 1.296 3.266 3.266 0 0 0 4.5621 3.0068z" style="fill:#fff;stroke-width:5.1842"/>
<path d="m179.94 136.89h-10.368a18.663 18.663 0 0 1 -4.5102 -0.46658 10.368 10.368 0 0 1 -3.266 -1.4516v-16.434h-5.7026v14.827a4.8213 4.8213 0 0 1 -0.57026 2.6439 1.7626 1.7626 0 0 1 -1.5553 0.88132h-8.3984a8.5021 8.5021 0 0 1 -2.1255 0 2.4884 2.4884 0 0 1 -1.2442 -0.72578 2.5402 2.5402 0 0 1 -0.57025 -1.3479 13.012 13.012 0 0 1 0 -2.0737v-19.337h-5.7026v3.266l-3.7326 1.0368q-2.0218 0.57026-4.1473 1.3997a36.289 36.289 0 0 0 -4.1474 1.9182 17.211 17.211 0 0 0 -3.5771 2.5402 12.027 12.027 0 0 0 -2.5402 3.3179 8.865 8.865 0 0 0 -0.98499 4.1474 8.6576 8.6576 0 0 0 0.98499 4.251 8.865 8.865 0 0 0 2.4884 2.9031 10.368 10.368 0 0 0 3.4216 1.6589 13.894 13.894 0 0 0 3.7326 0.51842 15.553 15.553 0 0 0 4.1992 -0.57025 17.885 17.885 0 0 0 4.3547 -1.97 6.9986 6.9986 0 0 0 0.77763 1.7626 4.7694 4.7694 0 0 0 1.4516 1.5034 8.0355 8.0355 0 0 0 2.3847 1.0368 13.79 13.79 0 0 0 3.5252 0.36288h10.939a5.8063 5.8063 0 0 0 3.266 -0.82947 6.7913 6.7913 0 0 0 2.0737 -2.0737 12.909 12.909 0 0 0 3.6289 2.1255 14.775 14.775 0 0 0 5.1842 0.82947h16.071v-24.003h-5.3397zm-44.014-3.8363a12.39 12.39 0 0 1 -3.3179 1.5553 13.842 13.842 0 0 1 -4.0437 0.57026 10.939 10.939 0 0 1 -2.3329 0 6.7394 6.7394 0 0 1 -2.0737 -0.82947 4.3547 4.3547 0 0 1 -1.5034 -1.5034 4.3029 4.3029 0 0 1 -0.57027 -2.281 4.8213 4.8213 0 0 1 0.985 -3.0068 9.4871 9.4871 0 0 1 2.8513 -2.3847 21.566 21.566 0 0 1 4.3547 -1.8663 48.524 48.524 0 0 1 5.6508 -1.3997z" style="fill:#fff;stroke-width:5.1842"/>
<path d="m185.28 105.22a3.4216 3.4216 0 0 0 -1.0368 -0.72578 3.2142 3.2142 0 0 0 -1.296 -0.25921 3.1624 3.1624 0 0 0 -1.296 0.25921 3.2142 3.2142 0 0 0 -1.0368 0.72578 3.5252 3.5252 0 0 0 -0.67394 1.0368 3.1105 3.1105 0 0 0 -0.25921 1.2961 3.266 3.266 0 0 0 4.5621 3.0068 3.5252 3.5252 0 0 0 1.0368 -0.67394 3.266 3.266 0 0 0 0.72579 -3.6289 3.4216 3.4216 0 0 0 -0.72579 -1.0368z" style="fill:#fff;stroke-width:5.1842"/>
<rect x="191.71" y="98.008" width="5.5471" height="44.428" style="fill:#fff;stroke-width:5.1842"/>
<path d="m331.47 136.89h-10.213l-2.5921-0.57026-2.3329-0.46658a9.4871 9.4871 0 0 1 -1.7626 -0.62211 32.505 32.505 0 0 0 3.6808 -4.3547 23.329 23.329 0 0 0 2.1255 -3.6808 13.012 13.012 0 0 0 1.1924 -5.1842 3.4734 3.4734 0 0 0 -0.88131 -2.3847 6.7913 6.7913 0 0 0 -2.281 -1.6589 13.116 13.116 0 0 0 -3.1105 -0.98499 17.989 17.989 0 0 0 -3.3697 -0.31105 26.387 26.387 0 0 0 -4.1992 0.31105 33.334 33.334 0 0 0 -3.6808 0.82947 24.78 24.78 0 0 0 -3.0587 1.0887l-2.3329 1.0887a2.0218 2.0218 0 0 0 -0.72578 0.77762 10.731 10.731 0 0 0 -0.6221 1.3997c0 0.51841-0.3629 1.0887-0.51843 1.6071a14.308 14.308 0 0 0 -0.36288 1.4516 21.618 21.618 0 0 1 1.4516 1.9181l2.0218 2.7476q1.1405 1.4516 2.3847 2.9031a16.33 16.33 0 0 0 2.6439 2.4366 3.6289 3.6289 0 0 1 -1.0887 0.51843 12.909 12.909 0 0 1 -1.9182 0.46658l-2.6439 0.36289h-35.615a18.093 18.093 0 0 1 -4.7694 -0.51842 10.368 10.368 0 0 1 -3.4216 -1.6071 11.768 11.768 0 0 0 0.6221 -3.6289 14.412 14.412 0 0 0 -1.2442 -5.7544 15.241 15.241 0 0 0 -1.6589 -2.7476 11.664 11.664 0 0 0 -2.3329 -2.3329 10.835 10.835 0 0 0 -3.0068 -1.6071 11.457 11.457 0 0 0 -3.7845 -0.57025 12.027 12.027 0 0 0 -2.0737 0 9.4352 9.4352 0 0 0 -2.3847 0.77762 12.546 12.546 0 0 0 -2.4884 1.6071 14.36 14.36 0 0 0 -2.4884 2.7476 24.573 24.573 0 0 0 -2.3329 4.0955 35.719 35.719 0 0 0 -1.7626 6.1692 4.4066 4.4066 0 0 1 -2.0218 2.7995 6.6358 6.6358 0 0 1 -3.4216 0.88132h-11.146v-18.352h-5.5989v20.737a25.921 25.921 0 0 1 -0.31105 4.1992 6.8431 6.8431 0 0 1 -4.3029 5.4952 19.389 19.389 0 0 1 -5.1842 1.296l0.57026 5.1842a32.297 32.297 0 0 0 5.4952 -1.3997 13.22 13.22 0 0 0 4.3029 -2.3847 11.353 11.353 0 0 0 2.9032 -3.7326 18.611 18.611 0 0 0 1.5552 -5.4952h14.464a1.97 1.97 0 0 0 0.72578 0 6.1692 6.1692 0 0 0 0.98499 -0.36289 6.4802 6.4802 0 0 0 1.5553 -1.296 10.887 10.887 0 0 0 1.3997 -2.0218 11.872 11.872 0 0 0 1.8144 1.6071 13.945 13.945 0 0 0 2.4884 1.4516 16.9 16.9 0 0 0 3.1624 1.0887 16.175 16.175 0 0 0 3.7844 0.41473 11.82 11.82 0 0 0 5.9618 -1.8145 11.975 11.975 0 0 0 3.7845 -3.0587 13.116 13.116 0 0 0 1.7108 1.5553 10.939 10.939 0 0 0 2.1774 1.2442h0.6221a1.2442 1.2442 0 0 0 0.46658 0.51842 1.97 1.97 0 0 0 0.72579 0h36.289a25.921 25.921 0 0 0 3.94 -0.31106 28.202 28.202 0 0 0 3.6808 0.0519 25.921 25.921 0 0 0 3.1624 -1.1405 30.69 30.69 0 0 0 2.7476 -1.3479l1.97 1.0368a22.499 22.499 0 0 0 3.0068 1.1924 31.986 31.986 0 0 0 3.8881 0.985 25.247 25.247 0 0 0 4.6658 0.41474h14.36v-44.636h-5.4434zm-80.925-2.4366a4.0437 4.0437 0 0 1 -1.5553 1.6589 7.206 7.206 0 0 1 -2.4366 0.82947 18.922 18.922 0 0 1 -3.2142 0 14.308 14.308 0 0 1 -2.5921 0 20.011 20.011 0 0 1 -2.5402 -0.6221 12.805 12.805 0 0 1 -2.0737 -0.88131 3.4734 3.4734 0 0 1 -1.1924 -0.93316 20.426 20.426 0 0 1 1.0887 -4.1473 15.241 15.241 0 0 1 1.9181 -3.5771 9.7981 9.7981 0 0 1 2.6439 -2.5402 6.0137 6.0137 0 0 1 3.266 -0.98499 5.8063 5.8063 0 0 1 3.266 0.88131 7.7763 7.7763 0 0 1 2.2292 2.1774 10.109 10.109 0 0 1 1.7108 5.1842 5.91 5.91 0 0 1 -0.51842 2.9031zm61.847-3.3179a14.049 14.049 0 0 1 -2.5921 1.97 16.538 16.538 0 0 1 -2.5921 -2.0737q-1.3479-1.296-2.4884-2.6439a31.883 31.883 0 0 1 -2.0737 -2.6439 19.596 19.596 0 0 1 -1.296 -2.0218 22.966 22.966 0 0 1 4.4584 -1.5552 18.145 18.145 0 0 1 3.7844 -0.46658 11.353 11.353 0 0 1 2.6958 0.31105 7.5689 7.5689 0 0 1 2.0218 0.77762 3.9918 3.9918 0 0 1 1.2442 1.0887 2.2292 2.2292 0 0 1 0.41473 1.296 4.1473 4.1473 0 0 1 -0.41473 1.6071 10.939 10.939 0 0 1 -1.2442 2.0737 19.13 19.13 0 0 1 -1.9182 2.281z" style="fill:#fff;stroke-width:5.1842"/>
<rect x="347.54" y="98.008" width="5.5471" height="44.428" style="fill:#fff;stroke-width:5.1842"/>
<path d="m380.88 142.44h57.648q0-2.955 0-4.6658v-4.0955a18.456 18.456 0 0 0 -1.1405 -7.7244 14.36 14.36 0 0 0 -4.6658 -5.1842 27.476 27.476 0 0 0 -7.8281 -4.0437 88.753 88.753 0 0 0 -11.613 -3.0068l-0.51842 0.82946-0.72578 1.1924-0.72578 1.3997a9.0205 9.0205 0 0 0 -0.57028 1.4516h0.57028l1.0368 0.25921a11.716 11.716 0 0 0 -3.9918 4.6139 13.531 13.531 0 0 0 -1.3997 6.0655 15.553 15.553 0 0 0 1.8663 7.4134h-35.252v-18.404h-5.5989v20.737a25.921 25.921 0 0 1 -0.31105 4.1992 6.8431 6.8431 0 0 1 -4.3029 5.4952 19.389 19.389 0 0 1 -5.1842 1.296l0.57025 5.1842a32.297 32.297 0 0 0 5.8063 -1.296 13.22 13.22 0 0 0 4.3029 -2.3847 11.353 11.353 0 0 0 2.9031 -3.7326 18.559 18.559 0 0 0 1.5553 -5.4952zm46.658-16.486a9.2278 9.2278 0 0 0 -1.1405 -2.8513 10.939 10.939 0 0 1 3.6808 1.7626 8.7613 8.7613 0 0 1 2.2292 2.4366 9.0205 9.0205 0 0 1 1.1405 2.8513 15.241 15.241 0 0 1 0.31106 3.0587v3.6808h-7.4652a12.079 12.079 0 0 0 0.57026 -1.5034c0-0.57026 0.3629-1.1924 0.51842-1.8663 0.15553-0.67395 0-1.3479 0.3629-2.0737a19.337 19.337 0 0 0 0 -2.1774 15.553 15.553 0 0 0 -0.20737 -3.3179zm-15.034 0.25921a9.2797 9.2797 0 0 1 1.1405 -2.5921 6.5839 6.5839 0 0 1 1.8663 -1.9181 4.6139 4.6139 0 0 1 2.6439 -0.77764 4.6658 4.6658 0 0 1 3.6289 1.8145 7.5171 7.5171 0 0 1 1.296 2.4884 12.442 12.442 0 0 1 0.51842 3.7844 11.25 11.25 0 0 1 0 1.97q0 1.0887-0.51842 2.1774a19.078 19.078 0 0 1 -0.67394 2.0737 10.887 10.887 0 0 1 -0.77763 1.6071h-5.1842a5.1842 5.1842 0 0 1 -1.296 -0.93314 7.8281 7.8281 0 0 1 -1.296 -1.659 9.7981 9.7981 0 0 1 -0.985 -2.3329 10.679 10.679 0 0 1 -0.41473 -3.0587 10.368 10.368 0 0 1 0 -2.6439z" style="fill:#fff;stroke-width:5.1842"/>
<rect x="446.51" y="98.008" width="5.5471" height="44.428" style="fill:#fff;stroke-width:5.1842"/>
<path d="m511.78 110.71a3.2142 3.2142 0 0 0 1.296 -0.25921 3.4734 3.4734 0 0 0 1.0368 -0.67394 3.266 3.266 0 0 0 0.72579 -3.6289 3.3697 3.3697 0 0 0 -1.7626 -1.7626 3.266 3.266 0 0 0 -2.5402 0 3.2142 3.2142 0 0 0 -1.0368 0.72578 3.5252 3.5252 0 0 0 -0.67394 1.0368 3.1105 3.1105 0 0 0 -0.2592 1.296 3.2142 3.2142 0 0 0 3.266 3.266z" style="fill:#fff;stroke-width:5.1842"/>
<path d="m545.47 98.008h-5.5471v38.881h-14.723v-5.1842a22.81 22.81 0 0 0 -0.7776 -6.0136 13.479 13.479 0 0 0 -2.3847 -4.8731 11.146 11.146 0 0 0 -4.1473 -3.266 14.308 14.308 0 0 0 -6.0655 -1.1924 14.827 14.827 0 0 0 -3.7326 0.46657 16.486 16.486 0 0 0 -3.4216 1.296 18.974 18.974 0 0 0 -3.0587 1.97 28.15 28.15 0 0 0 -2.7476 2.4884v-24.573h-5.5471v32.246q-0.98501 1.8145-1.7108 3.5252l-0.31105 0.88131h-14.36a26.336 26.336 0 0 0 -0.985 -5.5471 16.589 16.589 0 0 0 -1.9181 -4.3029 9.1242 9.1242 0 0 0 -2.7995 -2.7994 6.5839 6.5839 0 0 0 -3.5771 -0.985 6.4284 6.4284 0 0 0 -3.7326 1.1924 10.887 10.887 0 0 0 -2.9031 3.0068 15.553 15.553 0 0 0 -1.8663 3.9918 14.412 14.412 0 0 0 -0.67394 4.1992 7.9318 7.9318 0 0 0 3.0068 6.5839 13.012 13.012 0 0 0 8.2947 2.3847h1.5034a9.3834 9.3834 0 0 1 -3.5771 5.1842 17.419 17.419 0 0 1 -8.7094 3.1105 4.0437 4.0437 0 0 0 -1.4516 0.3629 0.72579 0.72579 0 0 0 -0.41473 0.67393 1.7108 1.7108 0 0 0 0 0.67395 6.1173 6.1173 0 0 0 0.51842 0.88131l0.6221 0.88132 0.46659 0.57025a8.4502 8.4502 0 0 0 2.0737 1.5034 5.5989 5.5989 0 0 0 3.0068 0.82947 10.939 10.939 0 0 0 4.3547 -0.93315 12.338 12.338 0 0 0 3.94 -2.7476 15.967 15.967 0 0 0 3.0587 -4.6139 20.737 20.737 0 0 0 1.659 -6.3765h68.794zm-77.348 36.652a10.368 10.368 0 0 1 -3.6289 -0.41474 1.5553 1.5553 0 0 1 -0.93315 -1.5553 3.6289 3.6289 0 0 1 0 -1.1924 5.1842 5.1842 0 0 1 0.67395 -1.2442 4.0437 4.0437 0 0 1 1.0887 -1.0368 2.6439 2.6439 0 0 1 1.4516 -0.41473 3.5252 3.5252 0 0 1 3.0068 1.5552 8.5021 8.5021 0 0 1 1.3997 4.3547zm51.479 2.1774h-23.692a22.966 22.966 0 0 1 1.1924 -3.4216 26.647 26.647 0 0 1 1.8144 -3.4216 24.677 24.677 0 0 1 2.3847 -3.1624 18.093 18.093 0 0 1 2.8513 -2.6439 13.531 13.531 0 0 1 3.3179 -1.8145 10.368 10.368 0 0 1 3.6808 -0.67394 10.368 10.368 0 0 1 3.3179 0.51841 6.3765 6.3765 0 0 1 2.6957 1.7108 8.6576 8.6576 0 0 1 1.8145 3.2142 16.226 16.226 0 0 1 0.67395 5.1842z" style="fill:#fff;stroke-width:5.1842"/>
<rect x="556" y="98.008" width="5.5471" height="44.428" style="fill:#fff;stroke-width:5.1842"/>
<path d="m79.259 178.47a20.996 20.996 0 0 1 -0.36289 3.7326 11.716 11.716 0 0 1 -1.1924 3.5252 7.4652 7.4652 0 0 1 -2.281 2.5921 6.221 6.221 0 0 1 -3.6289 1.0368 5.1842 5.1842 0 0 1 -2.9031 -0.82947 4.8213 4.8213 0 0 1 -1.8145 -2.3847 7.1023 7.1023 0 0 1 -0.46657 -2.281v-3.1105a6.6358 6.6358 0 0 1 0 -0.7258v-17.523h-8.8131v20.737a18.663 18.663 0 0 0 0.67394 5.1842 11.457 11.457 0 0 0 2.0218 4.0437 9.4871 9.4871 0 0 0 3.4216 2.7476 11.561 11.561 0 0 0 5.1842 0.98499 13.427 13.427 0 0 0 5.91 -1.6071 13.583 13.583 0 0 0 4.7176 -3.8363v4.4066h8.0355v-32.66h-8.5021z" style="fill:#fff;stroke-width:5.1842"/>
<path d="m109.43 162.24a8.3984 8.3984 0 0 0 -4.925 1.6071 10.368 10.368 0 0 0 -3.5253 4.1473v-5.1842h-5.7026v32.297h5.91v-14.671a16.797 16.797 0 0 1 2.3847 -9.5908 7.4134 7.4134 0 0 1 6.4802 -3.4216h1.6071a8.3465 8.3465 0 0 1 1.7108 0.41473v-5.1842l-2.0737-0.41473z" style="fill:#fff;stroke-width:5.1842"/>
<path d="m145.72 167.01a12.598 12.598 0 0 0 -4.3547 -3.5771 15.553 15.553 0 0 0 -12.909 0 11.975 11.975 0 0 0 -3.94 3.7326v-19.544h-6.0655v47.487h5.7026v-4.5621a11.302 11.302 0 0 0 1.5553 1.8145 11.613 11.613 0 0 0 2.3847 1.7108 14.93 14.93 0 0 0 3.1624 1.296 14.205 14.205 0 0 0 3.94 0.51841 12.857 12.857 0 0 0 6.2729 -1.5034 12.649 12.649 0 0 0 4.3029 -3.8881 17.056 17.056 0 0 0 2.4884 -5.5989 26.647 26.647 0 0 0 0.77763 -6.5321 21.877 21.877 0 0 0 -0.88132 -6.221 15.553 15.553 0 0 0 -2.4366 -5.1323zm-3.3179 15.967a13.323 13.323 0 0 1 -1.5552 3.94 9.7981 9.7981 0 0 1 -2.7995 3.0068 6.9468 6.9468 0 0 1 -4.0955 1.1924 8.0355 8.0355 0 0 1 -4.3547 -1.1405 9.4871 9.4871 0 0 1 -2.955 -2.8513 12.701 12.701 0 0 1 -1.6589 -3.8881 16.797 16.797 0 0 1 -0.51842 -4.1474 17.108 17.108 0 0 1 0.57025 -4.4584 12.442 12.442 0 0 1 1.7626 -3.8881 9.2278 9.2278 0 0 1 3.0068 -2.7476 8.3465 8.3465 0 0 1 4.251 -1.0368 7.6726 7.6726 0 0 1 4.0955 1.0368 8.5021 8.5021 0 0 1 2.7476 2.7476 12.183 12.183 0 0 1 1.5552 3.8363 17.678 17.678 0 0 1 0.41475 4.3029 17.263 17.263 0 0 1 -0.46659 4.0955z" style="fill:#fff;stroke-width:5.1842"/>
<path d="m181.03 188.79v-13.323a14.516 14.516 0 0 0 -3.0068 -10.005 12.753 12.753 0 0 0 -10.005 -3.2142 18.767 18.767 0 0 0 -5.7544 0.82947 23.381 23.381 0 0 0 -4.8731 2.1774l0.31105 5.1842a14.412 14.412 0 0 1 4.3547 -2.3847 14.93 14.93 0 0 1 5.1842 -0.8813 7.6726 7.6726 0 0 1 6.2728 2.1255 9.6944 9.6944 0 0 1 1.7108 6.2729h-6.2728a23.899 23.899 0 0 0 -5.1842 0.57026 16.641 16.641 0 0 0 -4.8731 1.7626 13.012 13.012 0 0 0 -2.0737 1.3997 8.865 8.865 0 0 0 -1.6589 1.8145 8.4502 8.4502 0 0 0 -1.0887 2.281 9.5907 9.5907 0 0 0 -0.3629 2.7995 10.887 10.887 0 0 0 0.88132 4.5621 8.2428 8.2428 0 0 0 2.4366 3.1623 10.368 10.368 0 0 0 3.7326 1.8145 18.819 18.819 0 0 0 4.7694 0.57026 12.442 12.442 0 0 0 3.6289 -0.51842 13.064 13.064 0 0 0 2.8513 -1.2442 10.679 10.679 0 0 0 2.1255 -1.6071 13.323 13.323 0 0 0 1.3997 -1.6071v4.1992h5.7544a18.352 18.352 0 0 1 0 -2.1255q-0.25921-1.8145-0.25921-4.6139zm-5.9618-6.221a8.1392 8.1392 0 0 1 -8.9686 8.502 6.5321 6.5321 0 0 1 -2.0737 -0.36288 6.7394 6.7394 0 0 1 -1.97 -1.0368 5.1842 5.1842 0 0 1 -1.4516 -1.659 4.4584 4.4584 0 0 1 -0.57025 -2.2292 4.5102 4.5102 0 0 1 1.296 -3.4216 7.88 7.88 0 0 1 3.1105 -1.8663 13.272 13.272 0 0 1 3.7326 -0.82948h6.895z" style="fill:#fff;stroke-width:5.1842"/>
<path d="m205.08 162.24a13.427 13.427 0 0 0 -6.3247 1.5552 9.4352 9.4352 0 0 0 -4.251 4.3029v-5.1842h-5.8581v32.297h5.9618v-15.034a23.64 23.64 0 0 1 0.57025 -5.1842 12.338 12.338 0 0 1 1.7626 -4.1992 8.3984 8.3984 0 0 1 3.0587 -2.7476 9.3834 9.3834 0 0 1 4.6139 -1.1405 5.91 5.91 0 0 1 5.1842 3.0068 19.13 19.13 0 0 1 1.4516 8.4502v16.745h5.91v-19.181a15.967 15.967 0 0 0 -2.9031 -10.368 11.042 11.042 0 0 0 -9.176 -3.3179z" style="fill:#fff;stroke-width:5.1842"/>
<path d="m255.63 166.91a11.664 11.664 0 0 0 -4.251 -3.7326 13.634 13.634 0 0 0 -6.4284 -1.3997 14.982 14.982 0 0 0 -3.0587 0.31106 11.509 11.509 0 0 0 -2.7994 0.98499 10.057 10.057 0 0 0 -2.4366 1.6589 9.0723 9.0723 0 0 0 -1.8145 2.4366v-4.6139h-8.2428v45.932h8.502v-17.108a13.997 13.997 0 0 0 4.251 3.3697 11.768 11.768 0 0 0 5.1842 1.1405 13.686 13.686 0 0 0 6.7394 -1.3997 12.079 12.079 0 0 0 4.3029 -3.7844 15.553 15.553 0 0 0 2.3847 -5.4952 29.498 29.498 0 0 0 0 -12.96 15.553 15.553 0 0 0 -2.3329 -5.3397zm-6.1692 15.553a11.82 11.82 0 0 1 -1.1405 3.4216 7.5171 7.5171 0 0 1 -2.2292 2.281 6.2729 6.2729 0 0 1 -6.8431 0 7.9836 7.9836 0 0 1 -2.3329 -2.5402 12.079 12.079 0 0 1 -1.3479 -3.3697 15.138 15.138 0 0 1 -0.41474 -3.4734 17.419 17.419 0 0 1 0.41474 -3.6289 11.716 11.716 0 0 1 1.296 -3.4216 7.6726 7.6726 0 0 1 2.3329 -2.5402 6.1692 6.1692 0 0 1 3.5771 -0.98499 5.8063 5.8063 0 0 1 3.4734 0.98499 6.895 6.895 0 0 1 2.1255 2.4884 11.405 11.405 0 0 1 1.0887 3.3697 21.774 21.774 0 0 1 0.31105 3.5252 20.115 20.115 0 0 1 -0.31105 3.7326z" style="fill:#fff;stroke-width:5.1842"/>
<path d="m282.38 162.24a12.96 12.96 0 0 0 -6.0655 1.3997 11.146 11.146 0 0 0 -4.3029 3.7845v-19.804h-6.0136v47.487h6.0136v-14.93a23.64 23.64 0 0 1 0.57026 -5.1842 12.338 12.338 0 0 1 1.7626 -4.1992 8.3465 8.3465 0 0 1 3.0587 -2.7476 9.3834 9.3834 0 0 1 4.4066 -0.98499 5.91 5.91 0 0 1 5.1842 3.0068 19.13 19.13 0 0 1 1.4516 8.4502v16.745h5.91v-19.181a15.915 15.915 0 0 0 -2.9031 -10.368 11.042 11.042 0 0 0 -9.0723 -3.4734z" style="fill:#fff;stroke-width:5.1842"/>
<path d="m329.92 173.13a16.434 16.434 0 0 0 -2.3847 -5.7026 11.457 11.457 0 0 0 -4.4066 -3.8363 14.827 14.827 0 0 0 -6.7394 -1.3997 15.553 15.553 0 0 0 -6.221 1.1924 13.894 13.894 0 0 0 -4.7694 3.3697 15.553 15.553 0 0 0 -3.0587 5.1842 19.233 19.233 0 0 0 -1.0887 6.5321 24.003 24.003 0 0 0 0.98499 7.1542 14.516 14.516 0 0 0 3.0587 5.4952 13.945 13.945 0 0 0 5.1842 3.5771 19.804 19.804 0 0 0 7.4134 1.2442 25.351 25.351 0 0 0 3.4734 0 23.225 23.225 0 0 0 2.6958 -0.51841l2.1774-0.67394 1.8145-0.67395v-6.221a9.3315 9.3315 0 0 1 -1.6071 1.0368 20.011 20.011 0 0 1 -2.4366 1.0368 22.292 22.292 0 0 1 -2.8513 0.82947 13.997 13.997 0 0 1 -3.0587 0.36289 10.368 10.368 0 0 1 -9.7981 -6.4284 10.731 10.731 0 0 1 -0.88131 -4.3547h23.173a34.63 34.63 0 0 0 -0.67394 -7.206zm-22.344 2.7476a14.775 14.775 0 0 1 0.72579 -3.266 10.005 10.005 0 0 1 1.5553 -2.9031 7.88 7.88 0 0 1 2.5921 -2.1255 8.0355 8.0355 0 0 1 3.7844 -0.82947 7.88 7.88 0 0 1 3.4216 0.72578 7.3097 7.3097 0 0 1 2.5402 1.9182 8.6576 8.6576 0 0 1 1.6589 3.2142 10.887 10.887 0 0 1 0.51842 3.4734z" style="fill:#fff;stroke-width:5.1842"/>
<path d="m353.82 162.24a13.427 13.427 0 0 0 -6.3247 1.5552 9.4352 9.4352 0 0 0 -4.251 4.3029v-5.1842h-5.91v32.297h5.91v-15.034a23.588 23.588 0 0 1 0.57026 -5.1842 12.338 12.338 0 0 1 1.7626 -4.1992 8.3984 8.3984 0 0 1 3.0587 -2.7476 9.3834 9.3834 0 0 1 4.4066 -0.98499 5.91 5.91 0 0 1 5.1842 3.0068 19.13 19.13 0 0 1 1.9182 8.3465v16.745h5.91v-19.181a15.967 15.967 0 0 0 -2.9032 -10.368 11.042 11.042 0 0 0 -9.3315 -3.3697z" style="fill:#fff;stroke-width:5.1842"/>
<path d="m400.94 166.86a15.241 15.241 0 0 0 -5.1842 -3.5252 17.16 17.16 0 0 0 -6.6876 -1.0887 17.367 17.367 0 0 0 -6.7394 1.2442 15.138 15.138 0 0 0 -5.1842 3.5252 15.553 15.553 0 0 0 -3.3179 5.1842 18.819 18.819 0 0 0 -1.1924 6.7913 17.782 17.782 0 0 0 1.1924 6.5321 16.486 16.486 0 0 0 3.3697 5.1842 16.019 16.019 0 0 0 5.1842 3.6289 16.278 16.278 0 0 0 6.6876 1.3479 15.967 15.967 0 0 0 11.82 -5.1842 16.589 16.589 0 0 0 3.3697 -5.1842 17.782 17.782 0 0 0 1.1924 -6.5321 19.13 19.13 0 0 0 -1.1924 -6.7913 15.553 15.553 0 0 0 -3.3179 -5.1323zm-2.4366 16.434a12.546 12.546 0 0 1 -1.8145 3.8881 9.5389 9.5389 0 0 1 -3.1105 2.7995 8.9686 8.9686 0 0 1 -4.5102 1.0887 9.1242 9.1242 0 0 1 -4.5621 -1.0887 9.6944 9.6944 0 0 1 -3.1624 -2.7995 12.494 12.494 0 0 1 -1.8145 -3.8881 16.071 16.071 0 0 1 -0.6221 -4.3029 14.568 14.568 0 0 1 0.67394 -4.4584 12.805 12.805 0 0 1 1.97 -3.8881 9.9536 9.9536 0 0 1 3.1624 -2.7476 8.8131 8.8131 0 0 1 4.251 -1.0368 8.6576 8.6576 0 0 1 4.1992 1.0368 9.9018 9.9018 0 0 1 3.1623 2.7476 12.494 12.494 0 0 1 1.97 3.8881 14.982 14.982 0 0 1 0.67394 4.4584 15.915 15.915 0 0 1 -0.46658 4.3029z" style="fill:#fff;stroke-width:5.1842"/>
<path d="m455.89 165.61a9.0205 9.0205 0 0 0 -3.4734 -2.5921 12.909 12.909 0 0 0 -5.1842 -0.93315 10.835 10.835 0 0 0 -2.4366 0.31104 11.664 11.664 0 0 0 -2.7995 1.0887 12.027 12.027 0 0 0 -2.6958 1.97 9.4871 9.4871 0 0 0 -2.0737 2.955 8.9686 8.9686 0 0 0 -3.8363 -4.7695 10.368 10.368 0 0 0 -5.1842 -1.5034 12.96 12.96 0 0 0 -6.0655 1.296 10.731 10.731 0 0 0 -4.1473 4.1473v-4.6658h-6.0137v32.297h5.9618v-16.33a20.218 20.218 0 0 1 0.46658 -4.4584 12.546 12.546 0 0 1 1.5034 -3.8363 8.2428 8.2428 0 0 1 2.6439 -2.6958 7.1542 7.1542 0 0 1 3.8881 -1.0368 4.7694 4.7694 0 0 1 2.9031 0.82947 5.5989 5.5989 0 0 1 1.7626 2.1255 10.368 10.368 0 0 1 0.82947 2.9031 21.255 21.255 0 0 1 0 3.0587v19.285h5.9618v-16.175a21.1 21.1 0 0 1 0.46658 -4.4584 12.183 12.183 0 0 1 1.5034 -3.8363 8.2428 8.2428 0 0 1 2.6439 -2.6958 7.1023 7.1023 0 0 1 3.8881 -1.0368 4.7694 4.7694 0 0 1 2.9031 0.82947 5.5989 5.5989 0 0 1 1.7626 2.1255 10.368 10.368 0 0 1 0.82947 2.9031 21.255 21.255 0 0 1 0 3.0587v19.285h6.7394v-20.737a18.819 18.819 0 0 0 -0.6221 -4.8731 10.368 10.368 0 0 0 -2.1255 -3.8363z" style="fill:#fff;stroke-width:5.1842"/>
<path d="m493.68 173.13a16.486 16.486 0 0 0 -2.3848 -5.8063 11.457 11.457 0 0 0 -4.4066 -3.8363 14.827 14.827 0 0 0 -6.7394 -1.3997 15.553 15.553 0 0 0 -6.221 1.1924 13.894 13.894 0 0 0 -4.7694 3.3697 15.241 15.241 0 0 0 -3.0587 5.1842 19.233 19.233 0 0 0 -1.0887 6.5321 24.003 24.003 0 0 0 0.98499 7.1542 14.516 14.516 0 0 0 3.0587 5.4952 13.945 13.945 0 0 0 5.1842 3.5771 19.804 19.804 0 0 0 7.4134 1.2442 25.351 25.351 0 0 0 3.4734 0 23.121 23.121 0 0 0 2.6958 -0.51842l2.1774-0.67395 1.8145-0.67395v-6.1173a9.3315 9.3315 0 0 1 -1.6071 1.0368 20.011 20.011 0 0 1 -2.4366 1.0368 22.292 22.292 0 0 1 -2.8513 0.82947 13.997 13.997 0 0 1 -3.0587 0.36289 10.368 10.368 0 0 1 -9.7463 -6.3766 10.731 10.731 0 0 1 -0.88131 -4.3547h23.018a34.63 34.63 0 0 0 -0.57026 -7.2579zm-22.344 2.7476a14.879 14.879 0 0 1 0.72579 -3.1624 10.005 10.005 0 0 1 1.5552 -2.9031 7.9318 7.9318 0 0 1 2.5921 -2.1255 8.0355 8.0355 0 0 1 3.7845 -0.82947 7.88 7.88 0 0 1 3.4216 0.72578 7.3097 7.3097 0 0 1 2.5402 1.9182 8.6057 8.6057 0 0 1 1.5553 2.8513 10.887 10.887 0 0 1 0.51842 3.4734z" style="fill:#fff;stroke-width:5.1842"/>
<path d="m517.58 162.24a13.427 13.427 0 0 0 -6.3247 1.5552 9.4352 9.4352 0 0 0 -4.2511 4.3029v-5.1842h-5.8581v32.297h5.9619v-15.034a23.64 23.64 0 0 1 0.57024 -5.1842 12.338 12.338 0 0 1 1.7626 -4.1992 8.3984 8.3984 0 0 1 3.0587 -2.7476 9.3834 9.3834 0 0 1 4.4065 -0.98499 5.91 5.91 0 0 1 5.1842 3.0068 19.13 19.13 0 0 1 1.4516 8.4502v16.745h5.9099v-19.181a15.915 15.915 0 0 0 -2.9031 -10.368 11.042 11.042 0 0 0 -8.9687 -3.4734z" style="fill:#fff;stroke-width:5.1842"/>
<path d="m562.74 195.16a18.352 18.352 0 0 1 0 -2.1255q0-1.3997 0-4.1992v-13.375a14.516 14.516 0 0 0 -3.0068 -10.005 12.753 12.753 0 0 0 -9.9537 -3.3697 18.767 18.767 0 0 0 -5.7544 0.82946 23.381 23.381 0 0 0 -4.8731 2.1774l0.31105 5.1842a14.412 14.412 0 0 1 4.3547 -2.3847 14.93 14.93 0 0 1 5.1842 -0.88131 7.6726 7.6726 0 0 1 6.221 2.1255 9.6944 9.6944 0 0 1 1.7107 6.2728h-6.2728a23.899 23.899 0 0 0 -5.1841 0.57026 16.641 16.641 0 0 0 -4.8731 1.7626 13.012 13.012 0 0 0 -2.0737 1.3997 8.8131 8.8131 0 0 0 -1.659 1.8145 8.4502 8.4502 0 0 0 -1.0887 2.281 9.5907 9.5907 0 0 0 -0.3629 2.7995 10.939 10.939 0 0 0 0.88135 4.5621 8.2428 8.2428 0 0 0 2.4365 3.1624 10.368 10.368 0 0 0 3.7326 1.8145 18.819 18.819 0 0 0 4.7694 0.57025 12.442 12.442 0 0 0 3.6289 -0.51842 13.064 13.064 0 0 0 2.8513 -1.2442 10.679 10.679 0 0 0 2.1255 -1.6071 13.323 13.323 0 0 0 1.3998 -1.6071v4.1992zm-6.221-12.546a8.1392 8.1392 0 0 1 -8.9686 8.5021 6.5321 6.5321 0 0 1 -2.0736 -0.36289 6.7394 6.7394 0 0 1 -1.97 -1.0368 5.1842 5.1842 0 0 1 -1.4516 -1.6589 4.4584 4.4584 0 0 1 -0.57025 -2.2292 4.5102 4.5102 0 0 1 1.296 -3.4216 7.88 7.88 0 0 1 3.1105 -1.8663 13.272 13.272 0 0 1 3.7326 -0.82947h6.8949z" style="fill:#fff;stroke-width:5.1842"/>
<path d="m125.81 66.854a35.045 35.045 0 0 0 10.835 -10.731 25.921 25.921 0 0 0 3.7844 -16.175 24.677 24.677 0 0 0 -4.4066 -11.975 41.94 41.94 0 0 0 -11.613 -11.198 59.307 59.307 0 0 0 -15.553 -7.1542 55.574 55.574 0 0 0 -16.123 -2.5402 30.431 30.431 0 0 0 -25.299 11.613 50.183 50.183 0 0 0 -9.176 31.935v5.7544a36.289 36.289 0 0 1 -20.737 -13.686 66.98 66.98 0 0 1 -11.924 -33.593 15.553 15.553 0 0 0 -1.3479 -5.5471 2.8513 2.8513 0 0 0 -2.6439 -1.5553 6.6876 6.6876 0 0 0 -2.5402 0.77763 23.847 23.847 0 0 0 -3.4216 1.97q-1.7626 1.1924-3.3179 2.4366a27.01 27.01 0 0 0 -2.2292 1.8663 32.609 32.609 0 0 0 -5.7544 8.0355 21.514 21.514 0 0 0 -2.3329 10.368 42.199 42.199 0 0 0 3.5252 16.693 47.591 47.591 0 0 0 10.368 15.241 61.329 61.329 0 0 0 17.678 11.82 79.836 79.836 0 0 0 24.521 6.4284v61.173a3.2142 3.2142 0 0 0 3.2142 3.2142h23.121a3.2142 3.2142 0 0 0 3.2142 -3.2142v-60.81a101.25 101.25 0 0 0 21.566 -3.8881 63.765 63.765 0 0 0 16.589 -7.2578zm-21.203-15.553a32.66 32.66 0 0 1 -16.693 5.1842v-12.079a39.141 39.141 0 0 1 1.6589 -14.049 6.0655 6.0655 0 0 1 6.0655 -3.6289 13.945 13.945 0 0 1 4.5102 0.88132 19.181 19.181 0 0 1 4.8731 2.5402 15.553 15.553 0 0 1 3.9918 4.1992 10.368 10.368 0 0 1 1.659 5.6508 13.583 13.583 0 0 1 -6.0655 11.457z" style="fill:#fff;stroke-width:5.1842"/>
<path class="cls-1" d="m83.249 221.97v36.807h-4.0955v-4.3547a9.2797 9.2797 0 0 1 -8.5539 5.1842 11.457 11.457 0 0 1 -10.731 -12.753 11.975 11.975 0 0 1 11.25 -13.479 8.3984 8.3984 0 0 1 7.5689 3.8363v-15.241zm-4.5621 21.929a8.2428 8.2428 0 0 0 0 -1.9182 6.7394 6.7394 0 0 0 -6.5839 -5.1842c-4.7176 0-7.5171 4.1473-7.5171 9.6944s2.281 9.0723 7.206 9.0723a6.8431 6.8431 0 0 0 6.6876 -5.1842 8.0355 8.0355 0 0 0 0 -1.97z" style="fill:#fff;stroke-width:5.1842"/>
<path class="cls-1" d="m93.359 247.06a8.0355 8.0355 0 0 0 8.6058 8.502 16.538 16.538 0 0 0 6.9468 -1.296l0.77762 3.266a20.063 20.063 0 0 1 -8.3465 1.6071 11.664 11.664 0 0 1 -12.338 -12.701 12.183 12.183 0 0 1 11.924 -13.323 10.368 10.368 0 0 1 10.368 11.82 16.382 16.382 0 0 1 0 2.1255zm13.375-3.266a6.4802 6.4802 0 0 0 -6.3247 -7.4134 7.5689 7.5689 0 0 0 -6.9986 7.4134z" style="fill:#fff;stroke-width:5.1842"/>
<path class="cls-1" d="m116.17 254.06a11.924 11.924 0 0 0 6.0136 1.8145c3.3179 0 4.8731-1.6589 4.8731-3.7326s-1.296-3.3697-4.6658-4.6139c-4.5102-1.6071-6.6358-4.0955-6.6358-7.1023a7.7244 7.7244 0 0 1 8.6576 -7.3615 12.494 12.494 0 0 1 6.1692 1.5553l-1.1405 3.3179a9.7463 9.7463 0 0 0 -5.1842 -1.4516c-2.6958 0-4.1992 1.5552-4.1992 3.4216 0 1.8663 1.5034 3.0068 4.7694 4.251 4.3547 1.6589 6.5839 3.8363 6.5839 7.5689s-3.4216 7.5689-9.3834 7.5689a14.36 14.36 0 0 1 -7.0505 -1.7626z" style="fill:#fff;stroke-width:5.1842"/>
<path class="cls-1" d="m142.4 226.63a2.8254 2.8254 0 0 1 -5.6508 0 2.7995 2.7995 0 0 1 2.8513 -2.8513 2.6958 2.6958 0 0 1 2.7994 2.8513zm-5.1842 32.142v-25.091h4.5621v25.091z" style="fill:#fff;stroke-width:5.1842"/>
<path class="cls-1" d="m170.87 255.09a14.412 14.412 0 0 1 -3.5771 11.457 13.272 13.272 0 0 1 -9.3315 3.0068 16.175 16.175 0 0 1 -8.3465 -2.0736l1.1405-3.4734a14.101 14.101 0 0 0 7.3615 1.97c4.6658 0 8.0873-2.4366 8.0873-8.7612v-2.7994a8.9686 8.9686 0 0 1 -7.9836 4.1992 11.198 11.198 0 0 1 -10.628 -12.183 12.027 12.027 0 0 1 11.302 -13.323 8.3465 8.3465 0 0 1 7.8281 4.3547v-3.7844h3.9918v6.895zm-4.5102-11.561a6.4802 6.4802 0 0 0 -0.25921 -2.0737 6.5839 6.5839 0 0 0 -6.3765 -4.8213c-4.3547 0-7.4652 3.6808-7.4652 9.487 0 4.925 2.4884 9.0205 7.4134 9.0205a6.6876 6.6876 0 0 0 6.3247 -4.6658 7.9836 7.9836 0 0 0 0.3629 -2.4366z" style="fill:#fff;stroke-width:5.1842"/>
<path class="cls-1" d="m178.12 240.47v-6.7913h4.0436l0.25921 4.1474a9.2278 9.2278 0 0 1 8.2947 -4.7176c3.4734 0 8.865 2.0737 8.865 10.679v14.982h-4.5621v-14.464c0-4.0437-1.5034-7.4134-5.8063-7.4134a6.4802 6.4802 0 0 0 -6.1173 4.6658 6.5839 6.5839 0 0 0 -0.31105 2.1255v15.086h-4.5621z" style="fill:#fff;stroke-width:5.1842"/>
<path class="cls-1" d="m231.21 231.19v12.183h11.716v3.1105h-11.716v12.287h-3.3179v-12.287h-11.716v-3.1105h11.716v-12.183z" style="fill:#fff;stroke-width:5.1842"/>
<path class="cls-1" d="m259.77 241.51v-7.8281h3.9918v4.925a7.5171 7.5171 0 0 1 6.9468 -5.4952 4.8213 4.8213 0 0 1 1.296 0v4.3029a6.9468 6.9468 0 0 0 -1.5553 0 6.3765 6.3765 0 0 0 -6.1173 5.8581 13.116 13.116 0 0 0 0 2.1255v13.375h-4.5102z" style="fill:#fff;stroke-width:5.1842"/>
<path class="cls-1" d="m278.75 247.06a8.0355 8.0355 0 0 0 8.8131 8.502 16.538 16.538 0 0 0 6.9468 -1.296l0.77763 3.266a20.063 20.063 0 0 1 -8.3465 1.6071 11.664 11.664 0 0 1 -12.338 -12.701 12.183 12.183 0 0 1 11.768 -13.531 10.368 10.368 0 0 1 10.368 11.82 16.382 16.382 0 0 1 0 2.1255zm13.375-3.266a6.4802 6.4802 0 0 0 -6.3247 -7.4134 7.5689 7.5689 0 0 0 -6.9986 7.4134z" style="fill:#fff;stroke-width:5.1842"/>
<path class="cls-1" d="m301.56 254.06a11.924 11.924 0 0 0 6.0136 1.8145c3.3179 0 4.8731-1.6589 4.8731-3.7326s-1.296-3.3697-4.6658-4.6139c-4.5102-1.6071-6.6358-4.0955-6.6358-7.1023a7.7244 7.7244 0 0 1 8.6576 -7.3615 12.494 12.494 0 0 1 6.1692 1.5553l-1.1405 3.3179a9.7463 9.7463 0 0 0 -5.1842 -1.4516c-2.6958 0-4.1992 1.5552-4.1992 3.4216 0 1.8663 1.5034 3.0068 4.7694 4.251 4.3547 1.6589 6.5839 3.8363 6.5839 7.5689s-3.4216 7.5689-9.3834 7.5689a14.36 14.36 0 0 1 -7.0505 -1.7626z" style="fill:#fff;stroke-width:5.1842"/>
<path class="cls-1" d="m325.25 247.06a8.0355 8.0355 0 0 0 8.6058 8.502 16.538 16.538 0 0 0 6.9468 -1.296l0.77762 3.266a20.063 20.063 0 0 1 -8.3465 1.6071 11.664 11.664 0 0 1 -12.338 -12.701 12.183 12.183 0 0 1 11.768 -13.531 10.368 10.368 0 0 1 10.368 11.82 16.382 16.382 0 0 1 0 2.1255zm13.375-3.266a6.4802 6.4802 0 0 0 -6.3247 -7.4134 7.5689 7.5689 0 0 0 -6.9986 7.4134z" style="fill:#fff;stroke-width:5.1842"/>
<path class="cls-1" d="m366.31 252.76a34.993 34.993 0 0 0 0.41473 6.0137h-4.1474l-0.36288-3.2142a9.3315 9.3315 0 0 1 -7.6726 3.7326 7.1542 7.1542 0 0 1 -7.6726 -7.206c0-6.0655 5.1842-9.3834 15.086-9.3315v-0.51842a5.1842 5.1842 0 0 0 -5.7026 -5.8063 12.442 12.442 0 0 0 -6.5321 1.8663l-1.0368-3.0068a15.553 15.553 0 0 1 8.2428 -2.2292c7.6726 0 9.5389 5.1842 9.5389 10.368zm-4.4066-6.7913c-5.1842 0-10.368 0.77762-10.368 5.6508a4.0437 4.0437 0 0 0 4.3029 4.3547 6.221 6.221 0 0 0 6.0655 -4.1992 4.8731 4.8731 0 0 0 0 -1.4516z" style="fill:#fff;stroke-width:5.1842"/>
<path class="cls-1" d="m373.67 241.51v-7.8281h3.9918v4.925a7.5171 7.5171 0 0 1 6.9468 -5.4952 4.8213 4.8213 0 0 1 1.296 0v4.3029a6.9468 6.9468 0 0 0 -1.5553 0 6.3765 6.3765 0 0 0 -6.1173 5.8581 13.116 13.116 0 0 0 0 2.1255v13.375h-4.5102z" style="fill:#fff;stroke-width:5.1842"/>
<path class="cls-1" d="m407.99 257.79a16.589 16.589 0 0 1 -7.206 1.5034 11.975 11.975 0 0 1 -12.494 -12.857 12.753 12.753 0 0 1 13.323 -13.272 15.19 15.19 0 0 1 6.3247 1.296l-1.0368 3.5252a10.368 10.368 0 0 0 -5.1842 -1.1924 9.4352 9.4352 0 0 0 -0.10368 18.767 12.909 12.909 0 0 0 5.5989 -1.2442z" style="fill:#fff;stroke-width:5.1842"/>
<path class="cls-1" d="m413.33 221.97h4.5621v15.553a8.4502 8.4502 0 0 1 3.266 -3.2142 9.3315 9.3315 0 0 1 4.6658 -1.296c3.3697 0 8.7613 2.0737 8.7613 10.731v14.93h-4.5621v-14.308c0-4.0437-1.5034-7.4652-5.8063-7.4652a6.5321 6.5321 0 0 0 -6.1174 4.5621 5.5471 5.5471 0 0 0 -0.31104 2.1774v15.138h-4.5621z" style="fill:#fff;stroke-width:5.1842"/>
</svg>
