<svg id="Layer_1" data-name="Layer 1" xmlns="http://www.w3.org/2000/svg" xmlns:xlink="http://www.w3.org/1999/xlink" viewBox="0 0 111.89 1542.78"><defs><style>.cls-1{fill:none;}.cls-2{opacity:0.5;}.cls-3{clip-path:url(#clip-path);}.cls-4{fill:#727272;}</style><clipPath id="clip-path" transform="translate(0 5.71)"><rect class="cls-1" y="-5.71" width="900.39" height="1542.78"/></clipPath></defs><title>ronda pattern-1-min</title><g id="Isolation_Mode" data-name="Isolation Mode"><g class="cls-2"><g class="cls-3"><g class="cls-3"><path class="cls-4" d="M8.27,24.33h6.18l4.37,4.37,4.37-4.37h6.18V17.2H31a3.43,3.43,0,0,0,0-6.86H29.37V3.23H23.19L18.82-1.14,14.45,3.23H8.27v7.13H6.65a3.43,3.43,0,0,0,0,6.86H8.26v7.11Zm10.55,8.94-5.71-5.71H5V20.24A6.65,6.65,0,0,1,5,7.34V0h8.07l5.71-5.71L24.53,0H32.6V7.33a6.65,6.65,0,0,1,0,12.9v7.32H24.53Z" transform="translate(0 5.71)"/></g><g class="cls-3"><path class="cls-4" d="M8.27,62.89h6.18l4.37,4.37,4.37-4.37h6.18V55.76H31a3.43,3.43,0,0,0,0-6.86H29.37V41.77H23.19L18.82,37.4l-4.37,4.37H8.27V48.9H6.65a3.43,3.43,0,0,0,0,6.86H8.26v7.13Zm10.55,8.94-5.71-5.71H5V58.8A6.65,6.65,0,0,1,5,45.9V38.58h8.07l5.71-5.71,5.71,5.71H32.6V45.9a6.65,6.65,0,0,1,0,12.9v7.32H24.53Z" transform="translate(0 5.71)"/></g><g class="cls-3"><path class="cls-4" d="M8.27,101.45h6.18l4.37,4.37,4.37-4.37h6.18V94.32H31a3.43,3.43,0,0,0,0-6.86H29.37V80.33H23.19L18.82,76l-4.37,4.37H8.27v7.13H6.65a3.43,3.43,0,1,0,0,6.86H8.26v7.13Zm10.55,8.93-5.71-5.71H5V97.35a6.65,6.65,0,0,1,0-12.9V77.12h8.07l5.71-5.71,5.71,5.71H32.6v7.33a6.65,6.65,0,0,1,0,12.9v7.32H24.53Z" transform="translate(0 5.71)"/></g><g class="cls-3"><path class="cls-4" d="M8.27,140h6.18l4.37,4.37L23.19,140h6.18v-7.13H31A3.43,3.43,0,0,0,31,126H29.37v-7.13H23.19l-4.37-4.37-4.37,4.37H8.27V126H6.65a3.43,3.43,0,0,0,0,6.86H8.26V140Zm10.55,8.93-5.71-5.71H5v-7.32A6.65,6.65,0,0,1,5,123v-7.33h8.07L18.82,110l5.71,5.71H32.6V123a6.65,6.65,0,0,1,0,12.91v7.32H24.53Z" transform="translate(0 5.71)"/></g><g class="cls-3"><path class="cls-4" d="M8.27,178.57h6.18l4.37,4.37,4.37-4.37h6.18v-7.13H31a3.43,3.43,0,1,0,0-6.86H29.37v-7.13H23.19l-4.37-4.37-4.37,4.37H8.27v7.13H6.65a3.43,3.43,0,0,0,0,6.86H8.26v7.13Zm10.55,8.93-5.71-5.71H5v-7.32a6.65,6.65,0,0,1,0-12.91v-7.33h8.07l5.71-5.71,5.71,5.71H32.6v7.33a6.65,6.65,0,0,1,0,12.91v7.32H24.53Z" transform="translate(0 5.71)"/></g><g class="cls-3"><path class="cls-4" d="M8.27,217.13h6.18l4.37,4.37,4.37-4.37h6.18V210H31a3.43,3.43,0,0,0,0-6.86H29.37V196H23.19l-4.37-4.37L14.45,196H8.27v7.13H6.65a3.43,3.43,0,0,0,0,6.86H8.26v7.13Zm10.55,8.93-5.71-5.71H5V213a6.65,6.65,0,0,1,0-12.91v-7.33h8.07l5.71-5.71,5.71,5.71H32.6v7.33a6.65,6.65,0,0,1,0,12.91v7.32H24.53Z" transform="translate(0 5.71)"/></g><g class="cls-3"><path class="cls-4" d="M8.27,255.69h6.18l4.37,4.37,4.37-4.37h6.18v-7.13H31a3.43,3.43,0,0,0,0-6.86H29.37v-7.13H23.19l-4.37-4.37-4.37,4.37H8.27v7.13H6.65a3.43,3.43,0,0,0,0,6.86H8.26v7.13Zm10.55,8.93-5.71-5.71H5v-7.32a6.65,6.65,0,0,1,0-12.91v-7.33h8.07l5.71-5.71,5.71,5.71H32.6v7.33a6.65,6.65,0,0,1,0,12.91v7.32H24.53Z" transform="translate(0 5.71)"/></g><g class="cls-3"><path class="cls-4" d="M8.27,294.25h6.18l4.37,4.37,4.37-4.37h6.18v-7.13H31a3.43,3.43,0,0,0,0-6.86H29.37v-7.13H23.19l-4.37-4.37-4.37,4.37H8.27v7.13H6.65a3.43,3.43,0,1,0,0,6.86H8.26v7.13Zm10.55,8.93-5.71-5.71H5v-7.32a6.65,6.65,0,0,1,0-12.91v-7.33h8.07l5.71-5.71,5.71,5.71H32.6v7.33a6.65,6.65,0,0,1,0,12.91v7.32H24.53Z" transform="translate(0 5.71)"/></g><g class="cls-3"><path class="cls-4" d="M8.27,332.81h6.18l4.37,4.37,4.37-4.37h6.18v-7.13H31a3.43,3.43,0,0,0,0-6.86H29.37v-7.13H23.19l-4.37-4.37-4.37,4.37H8.27v7.13H6.65a3.43,3.43,0,0,0,0,6.86H8.26v7.13Zm10.55,8.93L13.11,336H5v-7.32A6.65,6.65,0,0,1,5,315.8v-7.32h8.07l5.71-5.71,5.71,5.71H32.6v7.32a6.65,6.65,0,0,1,0,12.91V336H24.53Z" transform="translate(0 5.71)"/></g><g class="cls-3"><path class="cls-4" d="M8.27,371.36h6.18l4.37,4.37,4.37-4.37h6.18v-7.13H31a3.43,3.43,0,0,0,0-6.86H29.37v-7.13H23.19l-4.37-4.37-4.37,4.37H8.27v7.13H6.65a3.43,3.43,0,1,0,0,6.86H8.26v7.13Zm10.55,8.94-5.71-5.71H5v-7.32a6.65,6.65,0,0,1,0-12.91V347h8.07l5.71-5.71L24.53,347H32.6v7.32a6.65,6.65,0,0,1,0,12.91v7.32H24.53Z" transform="translate(0 5.71)"/></g><g class="cls-3"><path class="cls-4" d="M8.27,409.92h6.18l4.37,4.37,4.37-4.37h6.18v-7.13H31a3.43,3.43,0,0,0,0-6.86H29.37V388.8H23.19l-4.37-4.37-4.37,4.37H8.27v7.13H6.65a3.43,3.43,0,0,0,0,6.86H8.26v7.13Zm10.55,8.94-5.71-5.71H5v-7.32a6.65,6.65,0,0,1,0-12.91v-7.33h8.07l5.71-5.71,5.71,5.71H32.6v7.33a6.65,6.65,0,0,1,0,12.91v7.32H24.53Z" transform="translate(0 5.71)"/></g><g class="cls-3"><path class="cls-4" d="M8.27,448.48h6.18l4.37,4.37,4.37-4.37h6.18v-7.13H31a3.43,3.43,0,0,0,0-6.86H29.37v-7.13H23.19L18.82,423l-4.37,4.37H8.27v7.13H6.65a3.43,3.43,0,1,0,0,6.86H8.26v7.13Zm10.55,8.94-5.71-5.71H5v-7.32a6.65,6.65,0,0,1,0-12.91v-7.33h8.07l5.71-5.71,5.71,5.71H32.6v7.33a6.65,6.65,0,0,1,0,12.91v7.32H24.53Z" transform="translate(0 5.71)"/></g><g class="cls-3"><path class="cls-4" d="M8.27,487h6.18l4.37,4.37L23.19,487h6.18v-7.13H31a3.43,3.43,0,0,0,0-6.86H29.37v-7.13H23.19l-4.37-4.37-4.37,4.37H8.27v7.13H6.65a3.43,3.43,0,0,0,0,6.86H8.26V487ZM18.82,496l-5.71-5.71H5V483A6.65,6.65,0,0,1,5,470v-7.33h8.07L18.82,457l5.71,5.71H32.6V470a6.65,6.65,0,0,1,0,12.91v7.32H24.53Z" transform="translate(0 5.71)"/></g><g class="cls-3"><path class="cls-4" d="M8.27,525.6h6.18L18.82,530l4.37-4.37h6.18v-7.13H31a3.43,3.43,0,0,0,0-6.86H29.37v-7.13H23.19l-4.37-4.37-4.37,4.37H8.27v7.13H6.65a3.43,3.43,0,1,0,0,6.86H8.26v7.13Zm10.55,8.93-5.71-5.71H5V521.5a6.65,6.65,0,0,1,0-12.91v-7.33h8.07l5.71-5.71,5.71,5.71H32.6v7.33a6.65,6.65,0,0,1,0,12.91v7.32H24.53Z" transform="translate(0 5.71)"/></g><g class="cls-3"><path class="cls-4" d="M8.27,564.16h6.18l4.37,4.37,4.37-4.37h6.18V557H31a3.43,3.43,0,0,0,0-6.86H29.37V543H23.19l-4.37-4.37L14.45,543H8.27v7.13H6.65a3.43,3.43,0,0,0,0,6.86H8.26v7.13Zm10.55,8.93-5.71-5.71H5v-7.32a6.65,6.65,0,0,1,0-12.91v-7.33h8.07l5.71-5.71,5.71,5.71H32.6v7.33a6.65,6.65,0,0,1,0,12.91v7.32H24.53Z" transform="translate(0 5.71)"/></g><g class="cls-3"><path class="cls-4" d="M8.27,602.72h6.18l4.37,4.37,4.37-4.37h6.18v-7.13H31a3.43,3.43,0,0,0,0-6.86H29.37V581.6H23.19l-4.37-4.37-4.37,4.37H8.27v7.13H6.65a3.43,3.43,0,0,0,0,6.86H8.26v7.13Zm10.55,8.93-5.71-5.71H5v-7.32a6.65,6.65,0,0,1,0-12.91v-7.32h8.07l5.71-5.71,5.71,5.71H32.6v7.32a6.65,6.65,0,0,1,0,12.91v7.32H24.53Z" transform="translate(0 5.71)"/></g><g class="cls-3"><path class="cls-4" d="M8.27,641.28h6.18l4.37,4.37,4.37-4.37h6.18v-7.13H31a3.43,3.43,0,0,0,0-6.86H29.37v-7.13H23.19l-4.37-4.37-4.37,4.37H8.27v7.13H6.65a3.43,3.43,0,1,0,0,6.86H8.26v7.13Zm10.55,8.93-5.71-5.71H5v-7.32a6.65,6.65,0,0,1,0-12.91V617h8.07l5.71-5.71L24.53,617H32.6v7.32a6.65,6.65,0,0,1,0,12.91v7.32H24.53Z" transform="translate(0 5.71)"/></g><g class="cls-3"><path class="cls-4" d="M8.27,679.84h6.18l4.37,4.37,4.37-4.37h6.18v-7.13H31a3.43,3.43,0,0,0,0-6.86H29.37v-7.13H23.19l-4.37-4.37-4.37,4.37H8.27v7.13H6.65a3.43,3.43,0,1,0,0,6.86H8.26v7.13Zm10.55,8.93-5.71-5.71H5v-7.32a6.65,6.65,0,0,1,0-12.91v-7.32h8.07l5.71-5.71,5.71,5.71H32.6v7.32a6.65,6.65,0,0,1,0,12.91v7.32H24.53Z" transform="translate(0 5.71)"/></g><g class="cls-3"><path class="cls-4" d="M8.27,718.4h6.18l4.37,4.37,4.37-4.37h6.18v-7.13H31a3.43,3.43,0,0,0,0-6.86H29.37v-7.13H23.19l-4.37-4.37-4.37,4.37H8.27v7.13H6.65a3.43,3.43,0,0,0,0,6.86H8.26v7.13Zm10.55,8.93-5.71-5.71H5V714.3a6.65,6.65,0,0,1,0-12.91v-7.33h8.07l5.71-5.71,5.71,5.71H32.6v7.33a6.65,6.65,0,0,1,0,12.91v7.32H24.53Z" transform="translate(0 5.71)"/></g><g class="cls-3"><path class="cls-4" d="M8.27,757h6.18l4.37,4.37L23.19,757h6.18v-7.13H31A3.43,3.43,0,0,0,31,743H29.37v-7.13H23.19l-4.37-4.37-4.37,4.37H8.27V743H6.65a3.43,3.43,0,0,0,0,6.86H8.26V757Zm10.55,8.93-5.71-5.71H5v-7.32A6.65,6.65,0,0,1,5,740v-7.33h8.07l5.71-5.71,5.71,5.71H32.6V740a6.65,6.65,0,0,1,0,12.91v7.32H24.53Z" transform="translate(0 5.71)"/></g><g class="cls-3"><path class="cls-4" d="M8.27,795.52h6.18l4.37,4.37,4.37-4.37h6.18v-7.13H31a3.43,3.43,0,0,0,0-6.86H29.37V774.4H23.19L18.82,770l-4.37,4.37H8.27v7.13H6.65a3.43,3.43,0,1,0,0,6.86H8.26v7.13Zm10.55,8.93-5.71-5.71H5v-7.32a6.65,6.65,0,0,1,0-12.9v-7.33h8.07l5.71-5.71,5.71,5.71H32.6v7.33a6.65,6.65,0,0,1,0,12.9v7.32H24.53Z" transform="translate(0 5.71)"/></g><g class="cls-3"><path class="cls-4" d="M8.27,834.07h6.18l4.37,4.37,4.37-4.37h6.18v-7.13H31a3.43,3.43,0,0,0,0-6.86H29.37V813H23.19l-4.37-4.37L14.45,813H8.27v7.13H6.65a3.43,3.43,0,1,0,0,6.86H8.26v7.13ZM18.82,843l-5.71-5.71H5V830a6.65,6.65,0,0,1,0-12.91v-7.33h8.07L18.82,804l5.71,5.71H32.6v7.33a6.65,6.65,0,0,1,0,12.91v7.32H24.53Z" transform="translate(0 5.71)"/></g><g class="cls-3"><path class="cls-4" d="M8.27,872.63h6.18L18.82,877l4.37-4.37h6.18V865.5H31a3.43,3.43,0,0,0,0-6.86H29.37v-7.13H23.19l-4.37-4.37-4.37,4.37H8.27v7.13H6.65a3.43,3.43,0,0,0,0,6.86H8.26v7.13Zm10.55,8.94-5.71-5.71H5v-7.32a6.65,6.65,0,0,1,0-12.9v-7.33h8.07l5.71-5.71,5.71,5.71H32.6v7.33a6.65,6.65,0,0,1,0,12.9v7.32H24.53Z" transform="translate(0 5.71)"/></g><g class="cls-3"><path class="cls-4" d="M8.27,911.19h6.18l4.37,4.37,4.37-4.37h6.18v-7.13H31a3.43,3.43,0,1,0,0-6.86H29.37v-7.13H23.19l-4.37-4.37-4.37,4.37H8.27v7.13H6.65a3.43,3.43,0,0,0,0,6.86H8.26v7.13Zm10.55,8.94-5.71-5.71H5V907.1a6.65,6.65,0,0,1,0-12.91v-7.33h8.07l5.71-5.71,5.71,5.71H32.6v7.33a6.65,6.65,0,0,1,0,12.91v7.32H24.53Z" transform="translate(0 5.71)"/></g><g class="cls-3"><path class="cls-4" d="M8.27,949.75h6.18l4.37,4.37,4.37-4.37h6.18v-7.13H31a3.43,3.43,0,0,0,0-6.86H29.37v-7.13H23.19l-4.37-4.37-4.37,4.37H8.27v7.13H6.65a3.43,3.43,0,1,0,0,6.86H8.26v7.13Zm10.55,8.93L13.11,953H5v-7.32a6.65,6.65,0,0,1,0-12.91v-7.33h8.07l5.71-5.71,5.71,5.71H32.6v7.33a6.65,6.65,0,0,1,0,12.91V953H24.53Z" transform="translate(0 5.71)"/></g><g class="cls-3"><path class="cls-4" d="M8.27,988.31h6.18l4.37,4.37,4.37-4.37h6.18v-7.13H31a3.43,3.43,0,1,0,0-6.86H29.37v-7.13H23.19l-4.37-4.37-4.37,4.37H8.27v7.13H6.65a3.43,3.43,0,1,0,0,6.86H8.26v7.13Zm10.55,8.93-5.71-5.71H5v-7.32A6.65,6.65,0,0,1,5,971.3V964h8.07l5.71-5.71L24.53,964H32.6v7.33a6.65,6.65,0,0,1,0,12.91v7.32H24.53Z" transform="translate(0 5.71)"/></g><g class="cls-3"><path class="cls-4" d="M8.27,1026.87h6.18l4.37,4.37,4.37-4.37h6.18v-7.13H31a3.43,3.43,0,0,0,0-6.86H29.37v-7.13H23.19l-4.37-4.37-4.37,4.37H8.27v7.13H6.65a3.43,3.43,0,1,0,0,6.86H8.26v7.13Zm10.55,8.93-5.71-5.71H5v-7.32a6.66,6.66,0,0,1,0-12.92v-7.32h8.07l5.71-5.71,5.71,5.71H32.6v7.32a6.66,6.66,0,0,1,0,12.92v7.32H24.53Z" transform="translate(0 5.71)"/></g><g class="cls-3"><path class="cls-4" d="M8.27,1065.43h6.18l4.37,4.37,4.37-4.37h6.18v-7.13H31a3.43,3.43,0,1,0,0-6.86H29.37v-7.13H23.19l-4.37-4.37-4.37,4.37H8.27v7.13H6.65a3.43,3.43,0,0,0,0,6.86H8.26v7.13Zm10.55,8.93-5.71-5.71H5v-7.32a6.65,6.65,0,0,1,0-12.9v-7.33h8.07l5.71-5.71,5.71,5.71H32.6v7.33a6.65,6.65,0,0,1,0,12.9v7.32H24.53Z" transform="translate(0 5.71)"/></g><g class="cls-3"><path class="cls-4" d="M8.27,1104h6.18l4.37,4.37,4.37-4.37h6.18v-7.13H31a3.43,3.43,0,1,0,0-6.86H29.37v-7.13H23.19l-4.37-4.37-4.37,4.37H8.27V1090H6.65a3.43,3.43,0,1,0,0,6.86H8.26V1104Zm10.55,8.93-5.71-5.71H5v-7.32A6.65,6.65,0,0,1,5,1087v-7.32h8.07l5.71-5.71,5.71,5.71H32.6V1087a6.65,6.65,0,0,1,0,12.9v7.32H24.53Z" transform="translate(0 5.71)"/></g><g class="cls-3"><path class="cls-4" d="M8.27,1142.55h6.18l4.37,4.37,4.37-4.37h6.18v-7.13H31a3.43,3.43,0,0,0,0-6.86H29.37v-7.13H23.19l-4.37-4.37-4.37,4.37H8.27v7.13H6.65a3.43,3.43,0,1,0,0,6.86H8.26v7.13Zm10.55,8.93-5.71-5.71H5v-7.32a6.65,6.65,0,0,1,0-12.9v-7.33h8.07l5.71-5.71,5.71,5.71H32.6v7.33a6.65,6.65,0,0,1,0,12.9v7.32H24.53Z" transform="translate(0 5.71)"/></g><g class="cls-3"><path class="cls-4" d="M8.27,1181.11h6.18l4.37,4.37,4.37-4.37h6.18V1174H31a3.43,3.43,0,0,0,0-6.86H29.37V1160H23.19l-4.37-4.37L14.45,1160H8.27v7.13H6.65a3.43,3.43,0,0,0,0,6.86H8.26v7.12ZM18.82,1190l-5.71-5.71H5V1177a6.65,6.65,0,0,1,0-12.91v-7.32h8.07l5.71-5.71,5.71,5.71H32.6v7.32a6.65,6.65,0,0,1,0,12.91v7.32H24.53Z" transform="translate(0 5.71)"/></g><g class="cls-3"><path class="cls-4" d="M8.27,1219.67h6.18l4.37,4.37,4.37-4.37h6.18v-7.13H31a3.43,3.43,0,1,0,0-6.86H29.37v-7.13H23.19l-4.37-4.37-4.37,4.37H8.27v7.13H6.65a3.43,3.43,0,1,0,0,6.86H8.26v7.13Zm10.55,8.93-5.71-5.71H5v-7.32a6.65,6.65,0,0,1,0-12.91v-7.32h8.07l5.71-5.71,5.71,5.71H32.6v7.32a6.65,6.65,0,0,1,0,12.91v7.32H24.53Z" transform="translate(0 5.71)"/></g><g class="cls-3"><path class="cls-4" d="M8.27,1258.22h6.18l4.37,4.37,4.37-4.37h6.18v-7.13H31a3.43,3.43,0,1,0,0-6.86H29.37v-7.13H23.19l-4.37-4.37-4.37,4.37H8.27v7.13H6.65a3.43,3.43,0,1,0,0,6.86H8.26v7.13Zm10.55,8.94-5.71-5.71H5v-7.32a6.65,6.65,0,0,1,0-12.9v-7.32h8.07l5.71-5.71,5.71,5.71H32.6v7.32a6.65,6.65,0,0,1,0,12.9v7.32H24.53Z" transform="translate(0 5.71)"/></g><g class="cls-3"><path class="cls-4" d="M8.27,1296.78h6.18l4.37,4.37,4.37-4.37h6.18v-7.13H31a3.43,3.43,0,0,0,0-6.86H29.37v-7.13H23.19l-4.37-4.37-4.37,4.37H8.27v7.13H6.65a3.43,3.43,0,1,0,0,6.86H8.26v7.13Zm10.55,8.94L13.11,1300H5v-7.32a6.65,6.65,0,0,1,0-12.91v-7.32h8.07l5.71-5.71,5.71,5.71H32.6v7.32a6.65,6.65,0,0,1,0,12.91V1300H24.53Z" transform="translate(0 5.71)"/></g><g class="cls-3"><path class="cls-4" d="M8.27,1335.34h6.18l4.37,4.37,4.37-4.37h6.18v-7.13H31a3.43,3.43,0,0,0,0-6.86H29.37v-7.13H23.19l-4.37-4.37-4.37,4.37H8.27v7.13H6.65a3.43,3.43,0,1,0,0,6.86H8.26v7.13Zm10.55,8.94-5.71-5.71H5v-7.32a6.65,6.65,0,0,1,0-12.9V1311h8.07l5.71-5.71,5.71,5.71H32.6v7.33a6.65,6.65,0,0,1,0,12.9v7.32H24.53Z" transform="translate(0 5.71)"/></g><g class="cls-3"><path class="cls-4" d="M8.27,1373.9h6.18l4.37,4.37,4.37-4.37h6.18v-7.13H31a3.43,3.43,0,1,0,0-6.86H29.37v-7.13H23.19l-4.37-4.37-4.37,4.37H8.27v7.13H6.65a3.43,3.43,0,1,0,0,6.86H8.26v7.13Zm10.55,8.93-5.71-5.71H5v-7.32a6.65,6.65,0,0,1,0-12.9v-7.33h8.07l5.71-5.71,5.71,5.71H32.6v7.33a6.65,6.65,0,0,1,0,12.9v7.32H24.53Z" transform="translate(0 5.71)"/></g><g class="cls-3"><path class="cls-4" d="M8.27,1412.46h6.18l4.37,4.37,4.37-4.37h6.18v-7.13H31a3.43,3.43,0,1,0,0-6.86H29.37v-7.13H23.19L18.82,1387l-4.37,4.37H8.27v7.13H6.65a3.43,3.43,0,0,0,0,6.86H8.26v7.13Zm10.55,8.93-5.71-5.71H5v-7.32a6.65,6.65,0,0,1,0-12.9v-7.32h8.07l5.71-5.71,5.71,5.71H32.6v7.32a6.65,6.65,0,0,1,0,12.9v7.32H24.53Z" transform="translate(0 5.71)"/></g><g class="cls-3"><path class="cls-4" d="M8.27,1451h6.18l4.37,4.37,4.37-4.37h6.18v-7.13H31a3.43,3.43,0,0,0,0-6.86H29.37v-7.13H23.19l-4.37-4.37-4.37,4.37H8.27V1437H6.65a3.43,3.43,0,0,0,0,6.86H8.26V1451ZM18.82,1460l-5.71-5.71H5v-7.32A6.65,6.65,0,0,1,5,1434v-7.32h8.07l5.71-5.71,5.71,5.71H32.6V1434a6.65,6.65,0,0,1,0,12.91v7.32H24.53Z" transform="translate(0 5.71)"/></g><g class="cls-3"><path class="cls-4" d="M8.27,1489.58h6.18l4.37,4.37,4.37-4.37h6.18v-7.13H31a3.43,3.43,0,0,0,0-6.86H29.37v-7.13H23.19l-4.37-4.37-4.37,4.37H8.27v7.13H6.65a3.43,3.43,0,0,0,0,6.86H8.26v7.13Zm10.55,8.93-5.71-5.71H5v-7.32a6.65,6.65,0,0,1,0-12.91v-7.32h8.07l5.71-5.71,5.71,5.71H32.6v7.32a6.65,6.65,0,0,1,0,12.91v7.32H24.53Z" transform="translate(0 5.71)"/></g><g class="cls-3"><path class="cls-4" d="M8.27,1528.14h6.18l4.37,4.37,4.37-4.37h6.18V1521H31a3.43,3.43,0,1,0,0-6.86H29.37V1507H23.19l-4.37-4.37L14.45,1507H8.27v7.13H6.65a3.43,3.43,0,0,0,0,6.86H8.26v7.13Zm10.55,8.93-5.71-5.71H5V1524a6.65,6.65,0,0,1,0-12.91v-7.32h8.07l5.71-5.71,5.71,5.71H32.6v7.32a6.65,6.65,0,0,1,0,12.91v7.32H24.53Z" transform="translate(0 5.71)"/></g><g class="cls-3"><path class="cls-4" d="M45.39,24.33h6.18l4.37,4.37,4.37-4.37h6.18V17.2H68.1a3.43,3.43,0,1,0,0-6.86H66.49V3.23H60.31L55.94-1.14,51.57,3.23H45.39v7.13H43.78a3.43,3.43,0,1,0,0,6.86h1.61ZM56,33.27l-5.71-5.71H42.17V20.24a6.65,6.65,0,0,1,0-12.9V0h8.07L56-5.71,61.65,0h8.07V7.33a6.65,6.65,0,0,1,0,12.9v7.32H61.65Z" transform="translate(0 5.71)"/></g><g class="cls-3"><path class="cls-4" d="M45.39,62.89h6.18l4.37,4.37,4.37-4.37h6.18V55.76H68.1a3.43,3.43,0,1,0,0-6.86H66.49V41.77H60.31L55.94,37.4l-4.37,4.37H45.39V48.9H43.78a3.43,3.43,0,0,0,0,6.86h1.61ZM56,71.83l-5.71-5.71H42.17V58.8a6.65,6.65,0,0,1,0-12.9V38.58h8.07L56,32.87l5.71,5.71h8.07V45.9a6.65,6.65,0,0,1,0,12.9v7.32H61.66Z" transform="translate(0 5.71)"/></g><g class="cls-3"><path class="cls-4" d="M45.39,101.45h6.18l4.37,4.37,4.37-4.37h6.18V94.32H68.1a3.43,3.43,0,1,0,0-6.86H66.49V80.33H60.31L55.94,76l-4.37,4.37H45.39v7.13H43.78a3.43,3.43,0,1,0,0,6.86h1.61ZM56,110.38l-5.71-5.71H42.17V97.35a6.65,6.65,0,0,1,0-12.9V77.12h8.07L56,71.41l5.71,5.71h8.07v7.33a6.65,6.65,0,0,1,0,12.9v7.32H61.66Z" transform="translate(0 5.71)"/></g><g class="cls-3"><path class="cls-4" d="M45.39,140h6.18l4.37,4.37L60.31,140h6.18v-7.13H68.1a3.43,3.43,0,1,0,0-6.86H66.49v-7.13H60.31l-4.37-4.37-4.37,4.37H45.39V126H43.78a3.43,3.43,0,0,0,0,6.86h1.61ZM56,148.94l-5.71-5.71H42.17v-7.32a6.65,6.65,0,0,1,0-12.91v-7.33h8.07L56,110l5.71,5.71h8.07V123a6.65,6.65,0,0,1,0,12.91v7.32H61.66Z" transform="translate(0 5.71)"/></g><g class="cls-3"><path class="cls-4" d="M45.39,178.57h6.18l4.37,4.37,4.37-4.37h6.18v-7.13H68.1a3.43,3.43,0,1,0,0-6.86H66.49v-7.13H60.31l-4.37-4.37-4.37,4.37H45.39v7.13H43.78a3.43,3.43,0,0,0,0,6.86h1.61ZM56,187.5l-5.71-5.71H42.17v-7.32a6.65,6.65,0,0,1,0-12.91v-7.33h8.07L56,148.52l5.71,5.71h8.07v7.33a6.65,6.65,0,0,1,0,12.91v7.32H61.66Z" transform="translate(0 5.71)"/></g><g class="cls-3"><path class="cls-4" d="M45.39,217.13h6.18l4.37,4.37,4.37-4.37h6.18V210H68.1a3.43,3.43,0,0,0,0-6.86H66.49V196H60.31l-4.37-4.37L51.57,196H45.39v7.13H43.78a3.43,3.43,0,1,0,0,6.86h1.61ZM56,226.06l-5.71-5.71H42.17V213a6.65,6.65,0,0,1,0-12.91v-7.33h8.07L56,187.08l5.71,5.71h8.07v7.33a6.65,6.65,0,0,1,0,12.91v7.32H61.66Z" transform="translate(0 5.71)"/></g><g class="cls-3"><path class="cls-4" d="M45.39,255.69h6.18l4.37,4.37,4.37-4.37h6.18v-7.13H68.1a3.43,3.43,0,1,0,0-6.86H66.49v-7.13H60.31l-4.37-4.37-4.37,4.37H45.39v7.13H43.78a3.43,3.43,0,1,0,0,6.86h1.61ZM56,264.62l-5.71-5.71H42.17v-7.32a6.65,6.65,0,0,1,0-12.91v-7.33h8.07L56,225.64l5.71,5.71h8.07v7.33a6.65,6.65,0,0,1,0,12.91v7.32H61.66Z" transform="translate(0 5.71)"/></g><g class="cls-3"><path class="cls-4" d="M45.39,294.25h6.18l4.37,4.37,4.37-4.37h6.18v-7.13H68.1a3.43,3.43,0,1,0,0-6.86H66.49v-7.13H60.31l-4.37-4.37-4.37,4.37H45.39v7.13H43.78a3.43,3.43,0,1,0,0,6.86h1.61ZM56,303.18l-5.71-5.71H42.17v-7.32a6.65,6.65,0,0,1,0-12.91v-7.33h8.07L56,264.2l5.71,5.71h8.07v7.33a6.65,6.65,0,0,1,0,12.91v7.32H61.66Z" transform="translate(0 5.71)"/></g><g class="cls-3"><path class="cls-4" d="M45.39,332.81h6.18l4.37,4.37,4.37-4.37h6.18v-7.13H68.1a3.43,3.43,0,0,0,0-6.86H66.49v-7.13H60.31l-4.37-4.37-4.37,4.37H45.39v7.13H43.78a3.43,3.43,0,1,0,0,6.86h1.61ZM56,341.74,50.24,336H42.17v-7.32a6.65,6.65,0,0,1,0-12.91v-7.32h8.07L56,302.77l5.71,5.71h8.07v7.32a6.65,6.65,0,0,1,0,12.91V336H61.66Z" transform="translate(0 5.71)"/></g><g class="cls-3"><path class="cls-4" d="M45.39,371.36h6.18l4.37,4.37,4.37-4.37h6.18v-7.13H68.1a3.43,3.43,0,1,0,0-6.86H66.49v-7.13H60.31l-4.37-4.37-4.37,4.37H45.39v7.13H43.78a3.43,3.43,0,1,0,0,6.86h1.61ZM56,380.3l-5.71-5.71H42.17v-7.32a6.65,6.65,0,0,1,0-12.91V347h8.07L56,341.33,61.66,347h8.07v7.32a6.65,6.65,0,0,1,0,12.91v7.32H61.66Z" transform="translate(0 5.71)"/></g><g class="cls-3"><path class="cls-4" d="M45.39,409.92h6.18l4.37,4.37,4.37-4.37h6.18v-7.13H68.1a3.43,3.43,0,0,0,0-6.86H66.49V388.8H60.31l-4.37-4.37-4.37,4.37H45.39v7.13H43.78a3.43,3.43,0,1,0,0,6.86h1.61ZM56,418.86l-5.71-5.71H42.17v-7.32a6.65,6.65,0,0,1,0-12.91v-7.33h8.07L56,379.88l5.71,5.71h8.07v7.33a6.65,6.65,0,0,1,0,12.91v7.32H61.66Z" transform="translate(0 5.71)"/></g><g class="cls-3"><path class="cls-4" d="M45.39,448.48h6.18l4.37,4.37,4.37-4.37h6.18v-7.13H68.1a3.43,3.43,0,1,0,0-6.86H66.49v-7.13H60.31L55.94,423l-4.37,4.37H45.39v7.13H43.78a3.43,3.43,0,1,0,0,6.86h1.61ZM56,457.42l-5.71-5.71H42.17v-7.32a6.65,6.65,0,0,1,0-12.91v-7.33h8.07L56,418.44l5.71,5.71h8.07v7.33a6.65,6.65,0,0,1,0,12.91v7.32H61.66Z" transform="translate(0 5.71)"/></g><g class="cls-3"><path class="cls-4" d="M45.39,487h6.18l4.37,4.37L60.31,487h6.18v-7.13H68.1a3.43,3.43,0,0,0,0-6.86H66.49v-7.13H60.31l-4.37-4.37-4.37,4.37H45.39v7.13H43.78a3.43,3.43,0,1,0,0,6.86h1.61ZM56,496l-5.71-5.71H42.17V483a6.65,6.65,0,0,1,0-12.91v-7.33h8.07L56,457l5.71,5.71h8.07V470a6.65,6.65,0,0,1,0,12.91v7.32H61.66Z" transform="translate(0 5.71)"/></g><g class="cls-3"><path class="cls-4" d="M45.39,525.6h6.18L55.94,530l4.37-4.37h6.18v-7.13H68.1a3.43,3.43,0,1,0,0-6.86H66.49v-7.13H60.31l-4.37-4.37-4.37,4.37H45.39v7.13H43.78a3.43,3.43,0,1,0,0,6.86h1.61ZM56,534.53l-5.71-5.71H42.17V521.5a6.65,6.65,0,0,1,0-12.91v-7.33h8.07L56,495.55l5.71,5.71h8.07v7.33a6.65,6.65,0,0,1,0,12.91v7.32H61.66Z" transform="translate(0 5.71)"/></g><g class="cls-3"><path class="cls-4" d="M45.39,564.16h6.18l4.37,4.37,4.37-4.37h6.18V557H68.1a3.43,3.43,0,0,0,0-6.86H66.49V543H60.31l-4.37-4.37L51.57,543H45.39v7.13H43.78a3.43,3.43,0,1,0,0,6.86h1.61ZM56,573.09l-5.71-5.71H42.17v-7.32a6.65,6.65,0,0,1,0-12.91v-7.33h8.07L56,534.11l5.71,5.71h8.07v7.33a6.65,6.65,0,0,1,0,12.91v7.32H61.66Z" transform="translate(0 5.71)"/></g><g class="cls-3"><path class="cls-4" d="M45.39,602.72h6.18l4.37,4.37,4.37-4.37h6.18v-7.13H68.1a3.43,3.43,0,0,0,0-6.86H66.49V581.6H60.31l-4.37-4.37-4.37,4.37H45.39v7.13H43.78a3.43,3.43,0,1,0,0,6.86h1.61ZM56,611.65l-5.71-5.71H42.17v-7.32a6.65,6.65,0,0,1,0-12.91v-7.32h8.07L56,572.68l5.71,5.71h8.07v7.32a6.65,6.65,0,0,1,0,12.91v7.32H61.66Z" transform="translate(0 5.71)"/></g><g class="cls-3"><path class="cls-4" d="M45.39,641.28h6.18l4.37,4.37,4.37-4.37h6.18v-7.13H68.1a3.43,3.43,0,1,0,0-6.86H66.49v-7.13H60.31l-4.37-4.37-4.37,4.37H45.39v7.13H43.78a3.43,3.43,0,1,0,0,6.86h1.61ZM56,650.21l-5.71-5.71H42.17v-7.32a6.65,6.65,0,0,1,0-12.91V617h8.07L56,611.24,61.66,617h8.07v7.32a6.65,6.65,0,0,1,0,12.91v7.32H61.66Z" transform="translate(0 5.71)"/></g><g class="cls-3"><path class="cls-4" d="M45.39,679.84h6.18l4.37,4.37,4.37-4.37h6.18v-7.13H68.1a3.43,3.43,0,1,0,0-6.86H66.49v-7.13H60.31l-4.37-4.37-4.37,4.37H45.39v7.13H43.78a3.43,3.43,0,1,0,0,6.86h1.61ZM56,688.77l-5.71-5.71H42.17v-7.32a6.65,6.65,0,0,1,0-12.91v-7.32h8.07L56,649.8l5.71,5.71h8.07v7.32a6.65,6.65,0,0,1,0,12.91v7.32H61.66Z" transform="translate(0 5.71)"/></g><g class="cls-3"><path class="cls-4" d="M45.39,718.4h6.18l4.37,4.37,4.37-4.37h6.18v-7.13H68.1a3.43,3.43,0,0,0,0-6.86H66.49v-7.13H60.31l-4.37-4.37-4.37,4.37H45.39v7.13H43.78a3.43,3.43,0,1,0,0,6.86h1.61ZM56,727.33l-5.71-5.71H42.17V714.3a6.65,6.65,0,0,1,0-12.91v-7.33h8.07L56,688.35l5.71,5.71h8.07v7.33a6.65,6.65,0,0,1,0,12.91v7.32H61.66Z" transform="translate(0 5.71)"/></g><g class="cls-3"><path class="cls-4" d="M45.39,757h6.18l4.37,4.37L60.31,757h6.18v-7.13H68.1a3.43,3.43,0,0,0,0-6.86H66.49v-7.13H60.31l-4.37-4.37-4.37,4.37H45.39V743H43.78a3.43,3.43,0,1,0,0,6.86h1.61ZM56,765.89l-5.71-5.71H42.17v-7.32a6.65,6.65,0,0,1,0-12.91v-7.33h8.07L56,726.91l5.71,5.71h8.07V740a6.65,6.65,0,0,1,0,12.91v7.32H61.66Z" transform="translate(0 5.71)"/></g><g class="cls-3"><path class="cls-4" d="M45.39,795.52h6.18l4.37,4.37,4.37-4.37h6.18v-7.13H68.1a3.43,3.43,0,1,0,0-6.86H66.49V774.4H60.31L55.94,770l-4.37,4.37H45.39v7.13H43.78a3.43,3.43,0,1,0,0,6.86h1.61ZM56,804.45l-5.71-5.71H42.17v-7.32a6.65,6.65,0,0,1,0-12.9v-7.33h8.07L56,765.48l5.71,5.71h8.07v7.33a6.65,6.65,0,0,1,0,12.9v7.32H61.66Z" transform="translate(0 5.71)"/></g><g class="cls-3"><path class="cls-4" d="M45.39,834.07h6.18l4.37,4.37,4.37-4.37h6.18v-7.13H68.1a3.43,3.43,0,1,0,0-6.86H66.49V813H60.31l-4.37-4.37L51.57,813H45.39v7.13H43.78a3.43,3.43,0,1,0,0,6.86h1.61ZM56,843l-5.71-5.71H42.17V830a6.65,6.65,0,0,1,0-12.91v-7.33h8.07L56,804l5.71,5.71h8.07v7.33a6.65,6.65,0,0,1,0,12.91v7.32H61.66Z" transform="translate(0 5.71)"/></g><g class="cls-3"><path class="cls-4" d="M45.39,872.63h6.18L55.94,877l4.37-4.37h6.18V865.5H68.1a3.43,3.43,0,0,0,0-6.86H66.49v-7.13H60.31l-4.37-4.37-4.37,4.37H45.39v7.13H43.78a3.43,3.43,0,1,0,0,6.86h1.61ZM56,881.57l-5.71-5.71H42.17v-7.32a6.65,6.65,0,0,1,0-12.9v-7.33h8.07L56,842.6l5.71,5.71h8.07v7.33a6.65,6.65,0,0,1,0,12.9v7.32H61.66Z" transform="translate(0 5.71)"/></g><g class="cls-3"><path class="cls-4" d="M45.39,911.19h6.18l4.37,4.37,4.37-4.37h6.18v-7.13H68.1a3.43,3.43,0,1,0,0-6.86H66.49v-7.13H60.31l-4.37-4.37-4.37,4.37H45.39v7.13H43.78a3.43,3.43,0,0,0,0,6.86h1.61ZM56,920.13l-5.71-5.71H42.17V907.1a6.65,6.65,0,0,1,0-12.91v-7.33h8.07L56,881.15l5.71,5.71h8.07v7.33a6.65,6.65,0,0,1,0,12.91v7.32H61.66Z" transform="translate(0 5.71)"/></g><g class="cls-3"><path class="cls-4" d="M45.39,949.75h6.18l4.37,4.37,4.37-4.37h6.18v-7.13H68.1a3.43,3.43,0,1,0,0-6.86H66.49v-7.13H60.31l-4.37-4.37-4.37,4.37H45.39v7.13H43.78a3.43,3.43,0,1,0,0,6.86h1.61ZM56,958.68,50.24,953H42.17v-7.32a6.65,6.65,0,0,1,0-12.91v-7.33h8.07L56,919.7l5.71,5.71h8.07v7.33a6.65,6.65,0,0,1,0,12.91V953H61.66Z" transform="translate(0 5.71)"/></g><g class="cls-3"><path class="cls-4" d="M45.39,988.31h6.18l4.37,4.37,4.37-4.37h6.18v-7.13H68.1a3.43,3.43,0,1,0,0-6.86H66.49v-7.13H60.31l-4.37-4.37-4.37,4.37H45.39v7.13H43.78a3.43,3.43,0,0,0,0,6.86h1.61ZM56,997.24l-5.71-5.71H42.17v-7.32a6.65,6.65,0,0,1,0-12.91V964h8.07L56,958.26,61.66,964h8.07v7.33a6.65,6.65,0,0,1,0,12.91v7.32H61.66Z" transform="translate(0 5.71)"/></g><g class="cls-3"><path class="cls-4" d="M45.39,1026.87h6.18l4.37,4.37,4.37-4.37h6.18v-7.13H68.1a3.43,3.43,0,1,0,0-6.86H66.49v-7.13H60.31l-4.37-4.37-4.37,4.37H45.39v7.13H43.78a3.43,3.43,0,1,0,0,6.86h1.61ZM56,1035.8l-5.71-5.71H42.17v-7.32a6.66,6.66,0,0,1,0-12.92v-7.32h8.07L56,996.82l5.71,5.71h8.07v7.32a6.66,6.66,0,0,1,0,12.92v7.32H61.66Z" transform="translate(0 5.71)"/></g><g class="cls-3"><path class="cls-4" d="M45.39,1065.43h6.18l4.37,4.37,4.37-4.37h6.18v-7.13H68.1a3.43,3.43,0,1,0,0-6.86H66.49v-7.13H60.31l-4.37-4.37-4.37,4.37H45.39v7.13H43.78a3.43,3.43,0,0,0,0,6.86h1.61ZM56,1074.36l-5.71-5.71H42.17v-7.32a6.65,6.65,0,0,1,0-12.9v-7.33h8.07l5.71-5.71,5.71,5.71h8.07v7.33a6.65,6.65,0,0,1,0,12.9v7.32H61.66Z" transform="translate(0 5.71)"/></g><g class="cls-3"><path class="cls-4" d="M45.39,1104h6.18l4.37,4.37,4.37-4.37h6.18v-7.13H68.1a3.43,3.43,0,1,0,0-6.86H66.49v-7.13H60.31l-4.37-4.37-4.37,4.37H45.39V1090H43.78a3.43,3.43,0,0,0,0,6.86h1.61ZM56,1112.92l-5.71-5.71H42.17v-7.32a6.65,6.65,0,0,1,0-12.9v-7.32h8.07L56,1074l5.71,5.71h8.07V1087a6.65,6.65,0,0,1,0,12.9v7.32H61.66Z" transform="translate(0 5.71)"/></g><g class="cls-3"><path class="cls-4" d="M45.39,1142.55h6.18l4.37,4.37,4.37-4.37h6.18v-7.13H68.1a3.43,3.43,0,0,0,0-6.86H66.49v-7.13H60.31l-4.37-4.37-4.37,4.37H45.39v7.13H43.78a3.43,3.43,0,1,0,0,6.86h1.61ZM56,1151.48l-5.71-5.71H42.17v-7.32a6.65,6.65,0,0,1,0-12.9v-7.33h8.07l5.71-5.71,5.71,5.71h8.07v7.33a6.65,6.65,0,0,1,0,12.9v7.32H61.66Z" transform="translate(0 5.71)"/></g><g class="cls-3"><path class="cls-4" d="M45.39,1181.11h6.18l4.37,4.37,4.37-4.37h6.18V1174H68.1a3.43,3.43,0,0,0,0-6.86H66.49V1160H60.31l-4.37-4.37L51.57,1160H45.39v7.13H43.78a3.43,3.43,0,0,0,0,6.86h1.61ZM56,1190l-5.71-5.71H42.17V1177a6.65,6.65,0,0,1,0-12.91v-7.32h8.07l5.71-5.71,5.71,5.71h8.07v7.32a6.65,6.65,0,0,1,0,12.91v7.32H61.66Z" transform="translate(0 5.71)"/></g><g class="cls-3"><path class="cls-4" d="M45.39,1219.67h6.18l4.37,4.37,4.37-4.37h6.18v-7.13H68.1a3.43,3.43,0,1,0,0-6.86H66.49v-7.13H60.31l-4.37-4.37-4.37,4.37H45.39v7.13H43.78a3.43,3.43,0,0,0,0,6.86h1.61ZM56,1228.6l-5.71-5.71H42.17v-7.32a6.65,6.65,0,0,1,0-12.91v-7.32h8.07l5.71-5.71,5.71,5.71h8.07v7.32a6.65,6.65,0,0,1,0,12.91v7.32H61.66Z" transform="translate(0 5.71)"/></g><g class="cls-3"><path class="cls-4" d="M45.39,1258.22h6.18l4.37,4.37,4.37-4.37h6.18v-7.13H68.1a3.43,3.43,0,1,0,0-6.86H66.49v-7.13H60.31l-4.37-4.37-4.37,4.37H45.39v7.13H43.78a3.43,3.43,0,0,0,0,6.86h1.61ZM56,1267.16l-5.71-5.71H42.17v-7.32a6.65,6.65,0,0,1,0-12.9v-7.32h8.07L56,1228.2l5.71,5.71h8.07v7.32a6.65,6.65,0,0,1,0,12.9v7.32H61.66Z" transform="translate(0 5.71)"/></g><g class="cls-3"><path class="cls-4" d="M45.39,1296.78h6.18l4.37,4.37,4.37-4.37h6.18v-7.13H68.1a3.43,3.43,0,0,0,0-6.86H66.49v-7.13H60.31l-4.37-4.37-4.37,4.37H45.39v7.13H43.78a3.43,3.43,0,1,0,0,6.86h1.61ZM56,1305.72,50.24,1300H42.17v-7.32a6.65,6.65,0,0,1,0-12.91v-7.32h8.07l5.71-5.71,5.71,5.71h8.07v7.32a6.65,6.65,0,0,1,0,12.91V1300H61.66Z" transform="translate(0 5.71)"/></g><g class="cls-3"><path class="cls-4" d="M45.39,1335.34h6.18l4.37,4.37,4.37-4.37h6.18v-7.13H68.1a3.43,3.43,0,0,0,0-6.86H66.49v-7.13H60.31l-4.37-4.37-4.37,4.37H45.39v7.13H43.78a3.43,3.43,0,1,0,0,6.86h1.61ZM56,1344.28l-5.71-5.71H42.17v-7.32a6.65,6.65,0,0,1,0-12.9V1311h8.07l5.71-5.71,5.71,5.71h8.07v7.33a6.65,6.65,0,0,1,0,12.9v7.32H61.66Z" transform="translate(0 5.71)"/></g><g class="cls-3"><path class="cls-4" d="M45.39,1373.9h6.18l4.37,4.37,4.37-4.37h6.18v-7.13H68.1a3.43,3.43,0,1,0,0-6.86H66.49v-7.13H60.31l-4.37-4.37-4.37,4.37H45.39v7.13H43.78a3.43,3.43,0,0,0,0,6.86h1.61ZM56,1382.83l-5.71-5.71H42.17v-7.32a6.65,6.65,0,0,1,0-12.9v-7.33h8.07l5.71-5.71,5.71,5.71h8.07v7.33a6.65,6.65,0,0,1,0,12.9v7.32H61.66Z" transform="translate(0 5.71)"/></g><g class="cls-3"><path class="cls-4" d="M45.39,1412.46h6.18l4.37,4.37,4.37-4.37h6.18v-7.13H68.1a3.43,3.43,0,1,0,0-6.86H66.49v-7.13H60.31L55.94,1387l-4.37,4.37H45.39v7.13H43.78a3.43,3.43,0,0,0,0,6.86h1.61ZM56,1421.39l-5.71-5.71H42.17v-7.32a6.65,6.65,0,0,1,0-12.9v-7.32h8.07l5.71-5.71,5.71,5.71h8.07v7.32a6.65,6.65,0,0,1,0,12.9v7.32H61.66Z" transform="translate(0 5.71)"/></g><g class="cls-3"><path class="cls-4" d="M45.39,1451h6.18l4.37,4.37,4.37-4.37h6.18v-7.13H68.1a3.43,3.43,0,0,0,0-6.86H66.49v-7.13H60.31l-4.37-4.37-4.37,4.37H45.39V1437H43.78a3.43,3.43,0,1,0,0,6.86h1.61ZM56,1460l-5.71-5.71H42.17v-7.32a6.65,6.65,0,0,1,0-12.91v-7.32h8.07L56,1421l5.71,5.71h8.07V1434a6.65,6.65,0,0,1,0,12.91v7.32H61.66Z" transform="translate(0 5.71)"/></g><g class="cls-3"><path class="cls-4" d="M45.39,1489.58h6.18l4.37,4.37,4.37-4.37h6.18v-7.13H68.1a3.43,3.43,0,0,0,0-6.86H66.49v-7.13H60.31l-4.37-4.37-4.37,4.37H45.39v7.13H43.78a3.43,3.43,0,1,0,0,6.86h1.61ZM56,1498.51l-5.71-5.71H42.17v-7.32a6.65,6.65,0,0,1,0-12.91v-7.32h8.07l5.71-5.71,5.71,5.71h8.07v7.32a6.65,6.65,0,0,1,0,12.91v7.32H61.66Z" transform="translate(0 5.71)"/></g><g class="cls-3"><path class="cls-4" d="M45.39,1528.14h6.18l4.37,4.37,4.37-4.37h6.18V1521H68.1a3.43,3.43,0,1,0,0-6.86H66.49V1507H60.31l-4.37-4.37L51.57,1507H45.39v7.13H43.78a3.43,3.43,0,0,0,0,6.86h1.61ZM56,1537.07l-5.71-5.71H42.17V1524a6.65,6.65,0,0,1,0-12.91v-7.32h8.07L56,1498.1l5.71,5.71h8.07v7.32a6.65,6.65,0,0,1,0,12.91v7.32H61.66Z" transform="translate(0 5.71)"/></g><g class="cls-3"><path class="cls-4" d="M82.52,24.33H88.7l4.37,4.37,4.37-4.37h6.18V17.2h1.61a3.43,3.43,0,0,0,0-6.86h-1.61V3.23H97.44L93.07-1.14,88.7,3.23H82.52v7.13H80.91a3.43,3.43,0,1,0,0,6.86h1.61Zm10.55,8.94-5.71-5.71H79.29V20.24a6.65,6.65,0,0,1,0-12.9V0h8.07l5.71-5.71L98.78,0h8.07V7.33a6.65,6.65,0,0,1,0,12.9v7.32H98.78Z" transform="translate(0 5.71)"/></g><g class="cls-3"><path class="cls-4" d="M82.52,62.89H88.7l4.37,4.37,4.37-4.37h6.18V55.76h1.61a3.43,3.43,0,0,0,0-6.86h-1.61V41.77H97.44L93.07,37.4,88.7,41.77H82.52V48.9H80.91a3.43,3.43,0,1,0,0,6.86h1.61Zm10.55,8.94-5.71-5.71H79.29V58.8a6.65,6.65,0,0,1,0-12.9V38.58h8.07l5.71-5.71,5.71,5.71h8.07V45.9a6.65,6.65,0,0,1,0,12.9v7.32H98.78Z" transform="translate(0 5.71)"/></g><g class="cls-3"><path class="cls-4" d="M82.52,101.45H88.7l4.37,4.37,4.37-4.37h6.18V94.32h1.61a3.43,3.43,0,0,0,0-6.86h-1.61V80.33H97.44L93.07,76,88.7,80.33H82.52v7.13H80.91a3.43,3.43,0,1,0,0,6.86h1.61Zm10.55,8.93-5.71-5.71H79.29V97.35a6.65,6.65,0,0,1,0-12.9V77.12h8.07l5.71-5.71,5.71,5.71h8.07v7.33a6.65,6.65,0,0,1,0,12.9v7.32H98.78Z" transform="translate(0 5.71)"/></g><g class="cls-3"><path class="cls-4" d="M82.52,140H88.7l4.37,4.37L97.44,140h6.18v-7.13h1.61a3.43,3.43,0,0,0,0-6.86h-1.61v-7.13H97.44l-4.37-4.37-4.37,4.37H82.52V126H80.91a3.43,3.43,0,1,0,0,6.86h1.61Zm10.55,8.93-5.71-5.71H79.29v-7.32a6.65,6.65,0,0,1,0-12.91v-7.33h8.07L93.07,110l5.71,5.71h8.07V123a6.65,6.65,0,0,1,0,12.91v7.32H98.78Z" transform="translate(0 5.71)"/></g><g class="cls-3"><path class="cls-4" d="M82.52,178.57H88.7l4.37,4.37,4.37-4.37h6.18v-7.13h1.61a3.43,3.43,0,1,0,0-6.86h-1.61v-7.13H97.44l-4.37-4.37-4.37,4.37H82.52v7.13H80.91a3.43,3.43,0,0,0,0,6.86h1.61Zm10.55,8.93-5.71-5.71H79.29v-7.32a6.65,6.65,0,0,1,0-12.91v-7.33h8.07l5.71-5.71,5.71,5.71h8.07v7.33a6.65,6.65,0,0,1,0,12.91v7.32H98.78Z" transform="translate(0 5.71)"/></g><g class="cls-3"><path class="cls-4" d="M82.52,217.13H88.7l4.37,4.37,4.37-4.37h6.18V210h1.61a3.43,3.43,0,0,0,0-6.86h-1.61V196H97.44l-4.37-4.37L88.7,196H82.52v7.13H80.91a3.43,3.43,0,1,0,0,6.86h1.61Zm10.55,8.93-5.71-5.71H79.29V213a6.65,6.65,0,0,1,0-12.91v-7.33h8.07l5.71-5.71,5.71,5.71h8.07v7.33a6.65,6.65,0,0,1,0,12.91v7.32H98.78Z" transform="translate(0 5.71)"/></g><g class="cls-3"><path class="cls-4" d="M82.52,255.69H88.7l4.37,4.37,4.37-4.37h6.18v-7.13h1.61a3.43,3.43,0,0,0,0-6.86h-1.61v-7.13H97.44l-4.37-4.37-4.37,4.37H82.52v7.13H80.91a3.43,3.43,0,1,0,0,6.86h1.61Zm10.55,8.93-5.71-5.71H79.29v-7.32a6.65,6.65,0,0,1,0-12.91v-7.33h8.07l5.71-5.71,5.71,5.71h8.07v7.33a6.65,6.65,0,0,1,0,12.91v7.32H98.78Z" transform="translate(0 5.71)"/></g><g class="cls-3"><path class="cls-4" d="M82.52,294.25H88.7l4.37,4.37,4.37-4.37h6.18v-7.13h1.61a3.43,3.43,0,0,0,0-6.86h-1.61v-7.13H97.44l-4.37-4.37-4.37,4.37H82.52v7.13H80.91a3.43,3.43,0,1,0,0,6.86h1.61Zm10.55,8.93-5.71-5.71H79.29v-7.32a6.65,6.65,0,0,1,0-12.91v-7.33h8.07l5.71-5.71,5.71,5.71h8.07v7.33a6.65,6.65,0,0,1,0,12.91v7.32H98.78Z" transform="translate(0 5.71)"/></g><g class="cls-3"><path class="cls-4" d="M82.52,332.81H88.7l4.37,4.37,4.37-4.37h6.18v-7.13h1.61a3.43,3.43,0,0,0,0-6.86h-1.61v-7.13H97.44l-4.37-4.37-4.37,4.37H82.52v7.13H80.91a3.43,3.43,0,1,0,0,6.86h1.61Zm10.55,8.93L87.36,336H79.29v-7.32a6.65,6.65,0,0,1,0-12.91v-7.32h8.07l5.71-5.71,5.71,5.71h8.07v7.32a6.65,6.65,0,0,1,0,12.91V336H98.78Z" transform="translate(0 5.71)"/></g><g class="cls-3"><path class="cls-4" d="M82.52,371.36H88.7l4.37,4.37,4.37-4.37h6.18v-7.13h1.61a3.43,3.43,0,0,0,0-6.86h-1.61v-7.13H97.44l-4.37-4.37-4.37,4.37H82.52v7.13H80.91a3.43,3.43,0,1,0,0,6.86h1.61Zm10.55,8.94-5.71-5.71H79.29v-7.32a6.65,6.65,0,0,1,0-12.91V347h8.07l5.71-5.71L98.78,347h8.07v7.32a6.65,6.65,0,0,1,0,12.91v7.32H98.78Z" transform="translate(0 5.71)"/></g><g class="cls-3"><path class="cls-4" d="M82.52,409.92H88.7l4.37,4.37,4.37-4.37h6.18v-7.13h1.61a3.43,3.43,0,0,0,0-6.86h-1.61V388.8H97.44l-4.37-4.37L88.7,388.8H82.52v7.13H80.91a3.43,3.43,0,1,0,0,6.86h1.61Zm10.55,8.94-5.71-5.71H79.29v-7.32a6.65,6.65,0,0,1,0-12.91v-7.33h8.07l5.71-5.71,5.71,5.71h8.07v7.33a6.65,6.65,0,0,1,0,12.91v7.32H98.78Z" transform="translate(0 5.71)"/></g><g class="cls-3"><path class="cls-4" d="M82.52,448.48H88.7l4.37,4.37,4.37-4.37h6.18v-7.13h1.61a3.43,3.43,0,0,0,0-6.86h-1.61v-7.13H97.44L93.07,423l-4.37,4.37H82.52v7.13H80.91a3.43,3.43,0,1,0,0,6.86h1.61Zm10.55,8.94-5.71-5.71H79.29v-7.32a6.65,6.65,0,0,1,0-12.91v-7.33h8.07l5.71-5.71,5.71,5.71h8.07v7.33a6.65,6.65,0,0,1,0,12.91v7.32H98.78Z" transform="translate(0 5.71)"/></g><g class="cls-3"><path class="cls-4" d="M82.52,487H88.7l4.37,4.37L97.44,487h6.18v-7.13h1.61a3.43,3.43,0,0,0,0-6.86h-1.61v-7.13H97.44l-4.37-4.37-4.37,4.37H82.52v7.13H80.91a3.43,3.43,0,1,0,0,6.86h1.61ZM93.07,496l-5.71-5.71H79.29V483a6.65,6.65,0,0,1,0-12.91v-7.33h8.07L93.07,457l5.71,5.71h8.07V470a6.65,6.65,0,0,1,0,12.91v7.32H98.78Z" transform="translate(0 5.71)"/></g><g class="cls-3"><path class="cls-4" d="M82.52,525.6H88.7L93.07,530l4.37-4.37h6.18v-7.13h1.61a3.43,3.43,0,0,0,0-6.86h-1.61v-7.13H97.44l-4.37-4.37-4.37,4.37H82.52v7.13H80.91a3.43,3.43,0,1,0,0,6.86h1.61Zm10.55,8.93-5.71-5.71H79.29V521.5a6.65,6.65,0,0,1,0-12.91v-7.33h8.07l5.71-5.71,5.71,5.71h8.07v7.33a6.65,6.65,0,0,1,0,12.91v7.32H98.78Z" transform="translate(0 5.71)"/></g><g class="cls-3"><path class="cls-4" d="M82.52,564.16H88.7l4.37,4.37,4.37-4.37h6.18V557h1.61a3.43,3.43,0,0,0,0-6.86h-1.61V543H97.44l-4.37-4.37L88.7,543H82.52v7.13H80.91a3.43,3.43,0,1,0,0,6.86h1.61Zm10.55,8.93-5.71-5.71H79.29v-7.32a6.65,6.65,0,0,1,0-12.91v-7.33h8.07l5.71-5.71,5.71,5.71h8.07v7.33a6.65,6.65,0,0,1,0,12.91v7.32H98.78Z" transform="translate(0 5.71)"/></g><g class="cls-3"><path class="cls-4" d="M82.52,602.72H88.7l4.37,4.37,4.37-4.37h6.18v-7.13h1.61a3.43,3.43,0,0,0,0-6.86h-1.61V581.6H97.44l-4.37-4.37L88.7,581.6H82.52v7.13H80.91a3.43,3.43,0,1,0,0,6.86h1.61Zm10.55,8.93-5.71-5.71H79.29v-7.32a6.65,6.65,0,0,1,0-12.91v-7.32h8.07l5.71-5.71,5.71,5.71h8.07v7.32a6.65,6.65,0,0,1,0,12.91v7.32H98.78Z" transform="translate(0 5.71)"/></g><g class="cls-3"><path class="cls-4" d="M82.52,641.28H88.7l4.37,4.37,4.37-4.37h6.18v-7.13h1.61a3.43,3.43,0,0,0,0-6.86h-1.61v-7.13H97.44l-4.37-4.37-4.37,4.37H82.52v7.13H80.91a3.43,3.43,0,1,0,0,6.86h1.61Zm10.55,8.93-5.71-5.71H79.29v-7.32a6.65,6.65,0,0,1,0-12.91V617h8.07l5.71-5.71L98.78,617h8.07v7.32a6.65,6.65,0,0,1,0,12.91v7.32H98.78Z" transform="translate(0 5.71)"/></g><g class="cls-3"><path class="cls-4" d="M82.52,679.84H88.7l4.37,4.37,4.37-4.37h6.18v-7.13h1.61a3.43,3.43,0,0,0,0-6.86h-1.61v-7.13H97.44l-4.37-4.37-4.37,4.37H82.52v7.13H80.91a3.43,3.43,0,1,0,0,6.86h1.61Zm10.55,8.93-5.71-5.71H79.29v-7.32a6.65,6.65,0,0,1,0-12.91v-7.32h8.07l5.71-5.71,5.71,5.71h8.07v7.32a6.65,6.65,0,0,1,0,12.91v7.32H98.78Z" transform="translate(0 5.71)"/></g><g class="cls-3"><path class="cls-4" d="M82.52,718.4H88.7l4.37,4.37,4.37-4.37h6.18v-7.13h1.61a3.43,3.43,0,0,0,0-6.86h-1.61v-7.13H97.44l-4.37-4.37-4.37,4.37H82.52v7.13H80.91a3.43,3.43,0,1,0,0,6.86h1.61Zm10.55,8.93-5.71-5.71H79.29V714.3a6.65,6.65,0,0,1,0-12.91v-7.33h8.07l5.71-5.71,5.71,5.71h8.07v7.33a6.65,6.65,0,0,1,0,12.91v7.32H98.78Z" transform="translate(0 5.71)"/></g><g class="cls-3"><path class="cls-4" d="M82.52,757H88.7l4.37,4.37L97.44,757h6.18v-7.13h1.61a3.43,3.43,0,0,0,0-6.86h-1.61v-7.13H97.44l-4.37-4.37-4.37,4.37H82.52V743H80.91a3.43,3.43,0,1,0,0,6.86h1.61Zm10.55,8.93-5.71-5.71H79.29v-7.32a6.65,6.65,0,0,1,0-12.91v-7.33h8.07l5.71-5.71,5.71,5.71h8.07V740a6.65,6.65,0,0,1,0,12.91v7.32H98.78Z" transform="translate(0 5.71)"/></g><g class="cls-3"><path class="cls-4" d="M82.52,795.52H88.7l4.37,4.37,4.37-4.37h6.18v-7.13h1.61a3.43,3.43,0,0,0,0-6.86h-1.61V774.4H97.44L93.07,770,88.7,774.4H82.52v7.13H80.91a3.43,3.43,0,1,0,0,6.86h1.61Zm10.55,8.93-5.71-5.71H79.29v-7.32a6.65,6.65,0,0,1,0-12.9v-7.33h8.07l5.71-5.71,5.71,5.71h8.07v7.33a6.65,6.65,0,0,1,0,12.9v7.32H98.78Z" transform="translate(0 5.71)"/></g><g class="cls-3"><path class="cls-4" d="M82.52,834.07H88.7l4.37,4.37,4.37-4.37h6.18v-7.13h1.61a3.43,3.43,0,0,0,0-6.86h-1.61V813H97.44l-4.37-4.37L88.7,813H82.52v7.13H80.91a3.43,3.43,0,1,0,0,6.86h1.61ZM93.07,843l-5.71-5.71H79.29V830a6.65,6.65,0,0,1,0-12.91v-7.33h8.07L93.07,804l5.71,5.71h8.07v7.33a6.65,6.65,0,0,1,0,12.91v7.32H98.78Z" transform="translate(0 5.71)"/></g><g class="cls-3"><path class="cls-4" d="M82.52,872.63H88.7L93.07,877l4.37-4.37h6.18V865.5h1.61a3.43,3.43,0,0,0,0-6.86h-1.61v-7.13H97.44l-4.37-4.37-4.37,4.37H82.52v7.13H80.91a3.43,3.43,0,1,0,0,6.86h1.61Zm10.55,8.94-5.71-5.71H79.29v-7.32a6.65,6.65,0,0,1,0-12.9v-7.33h8.07l5.71-5.71,5.71,5.71h8.07v7.33a6.65,6.65,0,0,1,0,12.9v7.32H98.78Z" transform="translate(0 5.71)"/></g><g class="cls-3"><path class="cls-4" d="M82.52,911.19H88.7l4.37,4.37,4.37-4.37h6.18v-7.13h1.61a3.43,3.43,0,1,0,0-6.86h-1.61v-7.13H97.44l-4.37-4.37-4.37,4.37H82.52v7.13H80.91a3.43,3.43,0,0,0,0,6.86h1.61Zm10.55,8.94-5.71-5.71H79.29V907.1a6.65,6.65,0,0,1,0-12.91v-7.33h8.07l5.71-5.71,5.71,5.71h8.07v7.33a6.65,6.65,0,0,1,0,12.91v7.32H98.78Z" transform="translate(0 5.71)"/></g><g class="cls-3"><path class="cls-4" d="M82.52,949.75H88.7l4.37,4.37,4.37-4.37h6.18v-7.13h1.61a3.43,3.43,0,0,0,0-6.86h-1.61v-7.13H97.44l-4.37-4.37-4.37,4.37H82.52v7.13H80.91a3.43,3.43,0,1,0,0,6.86h1.61Zm10.55,8.93L87.36,953H79.29v-7.32a6.65,6.65,0,0,1,0-12.91v-7.33h8.07l5.71-5.71,5.71,5.71h8.07v7.33a6.65,6.65,0,0,1,0,12.91V953H98.78Z" transform="translate(0 5.71)"/></g><g class="cls-3"><path class="cls-4" d="M82.52,988.31H88.7l4.37,4.37,4.37-4.37h6.18v-7.13h1.61a3.43,3.43,0,1,0,0-6.86h-1.61v-7.13H97.44l-4.37-4.37-4.37,4.37H82.52v7.13H80.91a3.43,3.43,0,0,0,0,6.86h1.61Zm10.55,8.93-5.71-5.71H79.29v-7.32a6.65,6.65,0,0,1,0-12.91V964h8.07l5.71-5.71L98.78,964h8.07v7.33a6.65,6.65,0,0,1,0,12.91v7.32H98.78Z" transform="translate(0 5.71)"/></g><g class="cls-3"><path class="cls-4" d="M82.52,1026.87H88.7l4.37,4.37,4.37-4.37h6.18v-7.13h1.61a3.43,3.43,0,0,0,0-6.86h-1.61v-7.13H97.44l-4.37-4.37-4.37,4.37H82.52v7.13H80.91a3.43,3.43,0,1,0,0,6.86h1.61Zm10.55,8.93-5.71-5.71H79.29v-7.32a6.66,6.66,0,0,1,0-12.92v-7.32h8.07l5.71-5.71,5.71,5.71h8.07v7.32a6.66,6.66,0,0,1,0,12.92v7.32H98.78Z" transform="translate(0 5.71)"/></g><g class="cls-3"><path class="cls-4" d="M82.52,1065.43H88.7l4.37,4.37,4.37-4.37h6.18v-7.13h1.61a3.43,3.43,0,1,0,0-6.86h-1.61v-7.13H97.44l-4.37-4.37-4.37,4.37H82.52v7.13H80.91a3.43,3.43,0,0,0,0,6.86h1.61Zm10.55,8.93-5.71-5.71H79.29v-7.32a6.65,6.65,0,0,1,0-12.9v-7.33h8.07l5.71-5.71,5.71,5.71h8.07v7.33a6.65,6.65,0,0,1,0,12.9v7.32H98.78Z" transform="translate(0 5.71)"/></g><g class="cls-3"><path class="cls-4" d="M82.52,1104H88.7l4.37,4.37,4.37-4.37h6.18v-7.13h1.61a3.43,3.43,0,1,0,0-6.86h-1.61v-7.13H97.44l-4.37-4.37-4.37,4.37H82.52V1090H80.91a3.43,3.43,0,0,0,0,6.86h1.61Zm10.55,8.93-5.71-5.71H79.29v-7.32a6.65,6.65,0,0,1,0-12.9v-7.32h8.07l5.71-5.71,5.71,5.71h8.07V1087a6.65,6.65,0,0,1,0,12.9v7.32H98.78Z" transform="translate(0 5.71)"/></g><g class="cls-3"><path class="cls-4" d="M82.52,1142.55H88.7l4.37,4.37,4.37-4.37h6.18v-7.13h1.61a3.43,3.43,0,0,0,0-6.86h-1.61v-7.13H97.44l-4.37-4.37-4.37,4.37H82.52v7.13H80.91a3.43,3.43,0,1,0,0,6.86h1.61Zm10.55,8.93-5.71-5.71H79.29v-7.32a6.65,6.65,0,0,1,0-12.9v-7.33h8.07l5.71-5.71,5.71,5.71h8.07v7.33a6.65,6.65,0,0,1,0,12.9v7.32H98.78Z" transform="translate(0 5.71)"/></g><g class="cls-3"><path class="cls-4" d="M82.52,1181.11H88.7l4.37,4.37,4.37-4.37h6.18V1174h1.61a3.43,3.43,0,0,0,0-6.86h-1.61V1160H97.44l-4.37-4.37L88.7,1160H82.52v7.13H80.91a3.43,3.43,0,0,0,0,6.86h1.61ZM93.07,1190l-5.71-5.71H79.29V1177a6.65,6.65,0,0,1,0-12.91v-7.32h8.07l5.71-5.71,5.71,5.71h8.07v7.32a6.65,6.65,0,0,1,0,12.91v7.32H98.78Z" transform="translate(0 5.71)"/></g><g class="cls-3"><path class="cls-4" d="M82.52,1219.67H88.7l4.37,4.37,4.37-4.37h6.18v-7.13h1.61a3.43,3.43,0,1,0,0-6.86h-1.61v-7.13H97.44l-4.37-4.37-4.37,4.37H82.52v7.13H80.91a3.43,3.43,0,0,0,0,6.86h1.61Zm10.55,8.93-5.71-5.71H79.29v-7.32a6.65,6.65,0,0,1,0-12.91v-7.32h8.07l5.71-5.71,5.71,5.71h8.07v7.32a6.65,6.65,0,0,1,0,12.91v7.32H98.78Z" transform="translate(0 5.71)"/></g><g class="cls-3"><path class="cls-4" d="M82.52,1258.22H88.7l4.37,4.37,4.37-4.37h6.18v-7.13h1.61a3.43,3.43,0,1,0,0-6.86h-1.61v-7.13H97.44l-4.37-4.37-4.37,4.37H82.52v7.13H80.91a3.43,3.43,0,0,0,0,6.86h1.61Zm10.55,8.94-5.71-5.71H79.29v-7.32a6.65,6.65,0,0,1,0-12.9v-7.32h8.07l5.71-5.71,5.71,5.71h8.07v7.32a6.65,6.65,0,0,1,0,12.9v7.32H98.78Z" transform="translate(0 5.71)"/></g><g class="cls-3"><path class="cls-4" d="M82.52,1296.78H88.7l4.37,4.37,4.37-4.37h6.18v-7.13h1.61a3.43,3.43,0,0,0,0-6.86h-1.61v-7.13H97.44l-4.37-4.37-4.37,4.37H82.52v7.13H80.91a3.43,3.43,0,1,0,0,6.86h1.61Zm10.55,8.94L87.36,1300H79.29v-7.32a6.65,6.65,0,0,1,0-12.91v-7.32h8.07l5.71-5.71,5.71,5.71h8.07v7.32a6.65,6.65,0,0,1,0,12.91V1300H98.78Z" transform="translate(0 5.71)"/></g><g class="cls-3"><path class="cls-4" d="M82.52,1335.34H88.7l4.37,4.37,4.37-4.37h6.18v-7.13h1.61a3.43,3.43,0,0,0,0-6.86h-1.61v-7.13H97.44l-4.37-4.37-4.37,4.37H82.52v7.13H80.91a3.43,3.43,0,1,0,0,6.86h1.61Zm10.55,8.94-5.71-5.71H79.29v-7.32a6.65,6.65,0,0,1,0-12.9V1311h8.07l5.71-5.71,5.71,5.71h8.07v7.33a6.65,6.65,0,0,1,0,12.9v7.32H98.78Z" transform="translate(0 5.71)"/></g><g class="cls-3"><path class="cls-4" d="M82.52,1373.9H88.7l4.37,4.37,4.37-4.37h6.18v-7.13h1.61a3.43,3.43,0,1,0,0-6.86h-1.61v-7.13H97.44l-4.37-4.37-4.37,4.37H82.52v7.13H80.91a3.43,3.43,0,0,0,0,6.86h1.61Zm10.55,8.93-5.71-5.71H79.29v-7.32a6.65,6.65,0,0,1,0-12.9v-7.33h8.07l5.71-5.71,5.71,5.71h8.07v7.33a6.65,6.65,0,0,1,0,12.9v7.32H98.78Z" transform="translate(0 5.71)"/></g><g class="cls-3"><path class="cls-4" d="M82.52,1412.46H88.7l4.37,4.37,4.37-4.37h6.18v-7.13h1.61a3.43,3.43,0,1,0,0-6.86h-1.61v-7.13H97.44L93.07,1387l-4.37,4.37H82.52v7.13H80.91a3.43,3.43,0,0,0,0,6.86h1.61Zm10.55,8.93-5.71-5.71H79.29v-7.32a6.65,6.65,0,0,1,0-12.9v-7.32h8.07l5.71-5.71,5.71,5.71h8.07v7.32a6.65,6.65,0,0,1,0,12.9v7.32H98.78Z" transform="translate(0 5.71)"/></g><g class="cls-3"><path class="cls-4" d="M82.52,1451H88.7l4.37,4.37,4.37-4.37h6.18v-7.13h1.61a3.43,3.43,0,0,0,0-6.86h-1.61v-7.13H97.44l-4.37-4.37-4.37,4.37H82.52V1437H80.91a3.43,3.43,0,1,0,0,6.86h1.61ZM93.07,1460l-5.71-5.71H79.29v-7.32a6.65,6.65,0,0,1,0-12.91v-7.32h8.07l5.71-5.71,5.71,5.71h8.07V1434a6.65,6.65,0,0,1,0,12.91v7.32H98.78Z" transform="translate(0 5.71)"/></g><g class="cls-3"><path class="cls-4" d="M82.52,1489.58H88.7l4.37,4.37,4.37-4.37h6.18v-7.13h1.61a3.43,3.43,0,0,0,0-6.86h-1.61v-7.13H97.44l-4.37-4.37-4.37,4.37H82.52v7.13H80.91a3.43,3.43,0,1,0,0,6.86h1.61Zm10.55,8.93-5.71-5.71H79.29v-7.32a6.65,6.65,0,0,1,0-12.91v-7.32h8.07l5.71-5.71,5.71,5.71h8.07v7.32a6.65,6.65,0,0,1,0,12.91v7.32H98.78Z" transform="translate(0 5.71)"/></g><g class="cls-3"><path class="cls-4" d="M82.52,1528.14H88.7l4.37,4.37,4.37-4.37h6.18V1521h1.61a3.43,3.43,0,1,0,0-6.86h-1.61V1507H97.44l-4.37-4.37L88.7,1507H82.52v7.13H80.91a3.43,3.43,0,0,0,0,6.86h1.61Zm10.55,8.93-5.71-5.71H79.29V1524a6.65,6.65,0,0,1,0-12.91v-7.32h8.07l5.71-5.71,5.71,5.71h8.07v7.32a6.65,6.65,0,0,1,0,12.91v7.32H98.78Z" transform="translate(0 5.71)"/></g></g></g></g></svg>